<svg width="25" height="25" viewBox="0 0 25 25" fill="none" xmlns="http://www.w3.org/2000/svg">
<g clip-path="url(#clip0_335_3556)">
<path d="M15.2119 5.9769L15.2119 5.97692L15.2137 5.97876L21.1064 11.8715C21.2736 12.0387 21.3675 12.2654 21.3675 12.5019C21.3675 12.7383 21.2736 12.9651 21.1064 13.1323L15.2156 19.0231C15.2153 19.0234 15.215 19.0237 15.2147 19.024C15.0466 19.1859 14.8218 19.2754 14.5884 19.2734C14.3546 19.2714 14.131 19.1776 13.9656 19.0123C13.8003 18.847 13.7065 18.6233 13.7045 18.3895C13.7025 18.1561 13.792 17.9313 13.9539 17.7632L18.0675 13.6496L18.3236 13.3935H17.9615H4.16667C3.93018 13.3935 3.70338 13.2996 3.53616 13.1324C3.36894 12.9651 3.275 12.7383 3.275 12.5019C3.275 12.2654 3.36894 12.0386 3.53616 11.8714C3.70338 11.7041 3.93018 11.6102 4.16667 11.6102H17.9615H18.3236L18.0675 11.3541L13.9529 7.23955L13.953 7.23953L13.9511 7.23772C13.8659 7.15547 13.798 7.05707 13.7513 6.94829C13.7045 6.8395 13.6799 6.7225 13.6789 6.6041C13.6779 6.48571 13.7004 6.36829 13.7453 6.25871C13.7901 6.14913 13.8563 6.04957 13.94 5.96585C14.0238 5.88213 14.1233 5.81592 14.2329 5.77109C14.3425 5.72625 14.4599 5.70369 14.5783 5.70472C14.6967 5.70575 14.8137 5.73035 14.9225 5.77708C15.0313 5.82381 15.1296 5.89174 15.2119 5.9769Z" fill="#091A2B" stroke="#CDFF7A" stroke-width="0.3"/>
</g>
<defs>
<clipPath id="clip0_335_3556">
<rect width="25" height="25" fill="white"/>
</clipPath>
</defs>
</svg>
