<svg width="18" height="18" viewBox="0 0 18 18" fill="none" xmlns="http://www.w3.org/2000/svg">
<path d="M2.5228 2.5368C2.52287 2.22939 2.62999 1.9316 2.82577 1.69459C3.02155 1.45758 3.29375 1.29616 3.59562 1.23804C3.89749 1.17993 4.21017 1.22876 4.47995 1.37614C4.74972 1.52352 4.95975 1.76025 5.07395 2.04566L5.19046 2.33533C4.69153 2.70013 4.30473 3.19736 4.07388 3.7707C3.74559 4.57546 3.7398 5.47572 4.0577 6.28464C4.08756 6.36026 4.13232 6.42911 4.18932 6.4871C4.24631 6.54509 4.31438 6.59103 4.38947 6.6222C4.46457 6.65337 4.54516 6.66913 4.62646 6.66855C4.70777 6.66796 4.78813 6.65105 4.86277 6.6188L9.68512 4.5426C9.82989 4.48038 9.94478 4.36427 10.0055 4.21886C10.0662 4.07344 10.0679 3.91011 10.0104 3.76342C9.85614 3.36537 9.62416 3.00203 9.32798 2.6946C9.03181 2.38717 8.67737 2.14181 8.28534 1.97284C7.65554 1.70259 6.9541 1.64797 6.29005 1.81749L6.20105 1.59498C5.9822 1.04754 5.57948 0.59343 5.06213 0.310701C4.54478 0.0279732 3.9451 -0.0657126 3.36616 0.0457465C2.78722 0.157206 2.26519 0.466848 1.88979 0.921453C1.51439 1.37606 1.30907 1.94723 1.30912 2.5368V8.0914H1.10684C0.945895 8.0914 0.791544 8.15533 0.677739 8.26914C0.563935 8.38294 0.5 8.53729 0.5 8.69824C0.5 8.85918 0.563935 9.01353 0.677739 9.12734C0.791544 9.24114 0.945895 9.30508 1.10684 9.30508H1.30912V9.59231C1.30912 9.89573 1.30912 10.0737 1.32206 10.272C1.43696 12.082 2.41438 13.7528 3.83195 14.8451C3.82047 14.8629 3.80994 14.8813 3.8004 14.9001L2.99128 16.5184C2.92087 16.6622 2.91015 16.828 2.96147 16.9797C3.01279 17.1314 3.12198 17.2566 3.26524 17.3281C3.4085 17.3997 3.57423 17.4117 3.72631 17.3615C3.87838 17.3114 4.00448 17.2032 4.07711 17.0605L4.86034 15.4948C5.51222 15.8277 6.21989 16.0376 6.94787 16.1138C7.1461 16.134 7.26666 16.1381 7.47218 16.1462H7.47784C8.07659 16.1688 8.66239 16.1826 9.19803 16.1826C9.73366 16.1826 10.3195 16.1688 10.9182 16.1462H10.9239C11.1294 16.1381 11.2508 16.134 11.4482 16.1138C12.1762 16.0376 12.8838 15.8277 13.5357 15.4948L14.3189 17.0613C14.3546 17.1326 14.4039 17.1962 14.4642 17.2484C14.5244 17.3006 14.5943 17.3405 14.6699 17.3657C14.7455 17.3909 14.8254 17.401 14.9049 17.3953C14.9844 17.3897 15.062 17.3684 15.1333 17.3327C15.2046 17.2971 15.2682 17.2478 15.3204 17.1875C15.3726 17.1273 15.4125 17.0574 15.4377 16.9818C15.4629 16.9062 15.473 16.8263 15.4673 16.7468C15.4617 16.6673 15.4404 16.5897 15.4048 16.5184L14.5957 14.9001C14.5863 14.8813 14.5761 14.8629 14.5649 14.8451C15.9817 13.7528 16.9599 12.0812 17.0748 10.272C17.0869 10.0737 17.0869 9.89573 17.0869 9.59231V9.56157C17.0869 9.51302 17.0869 9.46205 17.0837 9.41593C17.0814 9.37884 17.0776 9.34186 17.0724 9.30508H17.2892C17.4502 9.30508 17.6045 9.24114 17.7183 9.12734C17.8321 9.01353 17.8961 8.85918 17.8961 8.69824C17.8961 8.53729 17.8321 8.38294 17.7183 8.26914C17.6045 8.15533 17.4502 8.0914 17.2892 8.0914H2.5228V2.5368Z" fill="#DE2D77"/>
</svg>
