<svg width="54" height="54" viewBox="0 0 54 54" fill="none" xmlns="http://www.w3.org/2000/svg">
<path d="M38.6875 22.0573C39.9398 22.4596 40.8125 23.6553 40.8125 25.028V31.0998C40.8125 32.7092 39.6126 34.0748 38.0075 34.2066C37.5258 34.2448 37.0442 34.2803 36.5625 34.3086V38.6875L32.3125 34.4375C30.4118 34.4377 28.5119 34.3607 26.6175 34.2066C26.2086 34.1735 25.8108 34.0568 25.4487 33.8637M38.6875 22.0573C38.4686 21.9868 38.2423 21.9416 38.0132 21.9227C34.2192 21.6077 30.4058 21.6077 26.6118 21.9227C25.0096 22.0558 23.8125 23.4201 23.8125 25.028V31.0998C23.8125 32.2856 24.4642 33.3382 25.4487 33.8637M38.6875 22.0573V19.4024C38.6875 17.106 37.0555 15.1156 34.7775 14.8195C31.8462 14.4395 28.8934 14.2493 25.9375 14.25C22.9412 14.25 19.9903 14.4441 17.0975 14.8195C14.8195 15.1156 13.1875 17.106 13.1875 19.4024V28.2226C13.1875 30.519 14.8195 32.5094 17.0975 32.8055C17.9149 32.9118 18.7366 33.0038 19.5625 33.0803V39.75L25.4487 33.8637" stroke="#091A2B" stroke-width="2.125" stroke-linecap="round" stroke-linejoin="round"/>
<rect x="0.5" y="0.5" width="53" height="53" rx="8.5" stroke="#091A2B" stroke-opacity="0.13"/>
</svg>
