<svg width="54" height="54" viewBox="0 0 54 54" fill="none" xmlns="http://www.w3.org/2000/svg">
<path d="M26.9998 41.0717C26.6192 41.0736 26.2434 40.9859 25.9028 40.8159C25.5623 40.6458 25.2664 40.3982 25.0392 40.0928L17.8694 30.5416C16.6831 28.8687 15.9797 26.9018 15.8361 24.856C15.6924 22.8102 16.1141 20.7643 17.0551 18.942C17.996 17.1198 19.4199 15.5913 21.171 14.5239C22.9222 13.4564 24.9331 12.8911 26.984 12.8897C29.0348 12.8882 31.0465 13.4508 32.7992 14.5158C34.5518 15.5808 35.9778 17.1072 36.9213 18.9281C37.8648 20.7491 38.2893 22.7944 38.1486 24.8404C38.0078 26.8864 37.3071 28.8543 36.1232 30.5289L28.9619 40.09C28.7346 40.3959 28.4387 40.6441 28.0978 40.8146C27.757 40.9852 27.3809 41.0732 26.9998 41.0717ZM26.9885 14.3435C24.5941 14.336 22.2824 15.2191 20.503 16.8212C18.7185 18.4145 17.5813 20.6076 17.3071 22.9841C17.0329 25.3606 17.6408 27.7551 19.0155 29.7129L26.1711 39.2428C26.267 39.3717 26.3918 39.4762 26.5355 39.548C26.6792 39.6199 26.8378 39.657 26.9984 39.6565C27.1594 39.6567 27.3182 39.6194 27.4623 39.5476C27.6064 39.4758 27.7318 39.3715 27.8286 39.2428L34.9742 29.703C35.9492 28.3233 36.5485 26.7138 36.7132 25.0325C36.8779 23.3512 36.6024 21.6559 35.9138 20.1133C35.2251 18.5707 34.147 17.2337 32.7854 16.2338C31.4237 15.2339 29.8254 14.6054 28.1473 14.4101C27.7626 14.3661 27.3757 14.3439 26.9885 14.3435Z" fill="#091A2B"/>
<path d="M27.0007 27.7083C26.3002 27.7083 25.6154 27.5006 25.033 27.1115C24.4506 26.7223 23.9966 26.1692 23.7286 25.522C23.4605 24.8749 23.3904 24.1627 23.527 23.4757C23.6637 22.7887 24.001 22.1576 24.4963 21.6623C24.9916 21.167 25.6227 20.8297 26.3097 20.6931C26.9967 20.5564 27.7088 20.6265 28.356 20.8946C29.0031 21.1627 29.5563 21.6166 29.9454 22.199C30.3346 22.7814 30.5423 23.4662 30.5423 24.1667C30.5423 25.106 30.1692 26.0068 29.505 26.671C28.8408 27.3352 27.94 27.7083 27.0007 27.7083ZM27.0007 22.0417C26.5804 22.0417 26.1695 22.1663 25.8201 22.3998C25.4706 22.6333 25.1982 22.9652 25.0374 23.3535C24.8766 23.7418 24.8345 24.169 24.9165 24.5812C24.9985 24.9934 25.2009 25.3721 25.4981 25.6693C25.7952 25.9665 26.1739 26.1688 26.5861 26.2508C26.9983 26.3328 27.4256 26.2907 27.8139 26.1299C28.2021 25.9691 28.534 25.6967 28.7675 25.3473C29.001 24.9978 29.1257 24.587 29.1257 24.1667C29.1257 23.6031 28.9018 23.0626 28.5033 22.6641C28.1047 22.2656 27.5642 22.0417 27.0007 22.0417Z" fill="#091A2B"/>
<rect x="0.5" y="0.5" width="53" height="53" rx="8.5" stroke="#091A2B" stroke-opacity="0.13"/>
</svg>
