<svg width="54" height="54" viewBox="0 0 54 54" fill="none" xmlns="http://www.w3.org/2000/svg">
<path d="M21.0115 38.26C22.8545 39.2416 24.9111 39.7534 26.9992 39.7499C34.0408 39.7499 39.7492 34.0415 39.7492 26.9999C39.7492 19.9583 34.0408 14.2499 26.9992 14.2499C19.9575 14.2499 14.2492 19.9583 14.2492 26.9999C14.2492 29.1674 14.7895 31.2062 15.7415 32.9912C15.9637 33.407 16.0159 33.8928 15.8872 34.3463L14.3888 39.6127L19.6564 38.1155C20.1098 37.9865 20.5955 38.0383 21.0115 38.26ZM26.9992 41.5713C24.612 41.5747 22.2609 40.9891 20.1542 39.8665L14.3621 41.5143C14.1021 41.5881 13.8271 41.5912 13.5655 41.5232C13.3039 41.4552 13.0652 41.3186 12.874 41.1275C12.6829 40.9363 12.5463 40.6976 12.4783 40.436C12.4103 40.1744 12.4134 39.8994 12.4872 39.6394L14.1338 33.8473C13.0103 31.74 12.4243 29.388 12.4277 26.9999C12.4277 18.9528 18.9521 12.4285 26.9992 12.4285C35.0462 12.4285 41.5706 18.9528 41.5706 26.9999C41.5706 35.047 35.0462 41.5713 26.9992 41.5713ZM21.5349 24.2678C21.5349 24.0262 21.6308 23.7946 21.8016 23.6238C21.9724 23.453 22.2041 23.357 22.4456 23.357H31.5527C31.7943 23.357 32.0259 23.453 32.1967 23.6238C32.3675 23.7946 32.4635 24.0262 32.4635 24.2678C32.4635 24.5093 32.3675 24.7409 32.1967 24.9117C32.0259 25.0825 31.7943 25.1785 31.5527 25.1785H22.4456C22.2041 25.1785 21.9724 25.0825 21.8016 24.9117C21.6308 24.7409 21.5349 24.5093 21.5349 24.2678ZM21.5349 29.732C21.5349 29.4905 21.6308 29.2589 21.8016 29.0881C21.9724 28.9173 22.2041 28.8213 22.4456 28.8213H27.9099C28.1514 28.8213 28.3831 28.9173 28.5539 29.0881C28.7247 29.2589 28.8206 29.4905 28.8206 29.732C28.8206 29.9736 28.7247 30.2052 28.5539 30.376C28.3831 30.5468 28.1514 30.6428 27.9099 30.6428H22.4456C22.2041 30.6428 21.9724 30.5468 21.8016 30.376C21.6308 30.2052 21.5349 29.9736 21.5349 29.732Z" fill="#091A2B"/>
<rect x="0.5" y="0.5" width="53" height="53" rx="8.5" stroke="#091A2B" stroke-opacity="0.13"/>
</svg>
