<svg width="54" height="54" viewBox="0 0 54 54" fill="none" xmlns="http://www.w3.org/2000/svg">
<path d="M39.9496 34.8359C38.8951 33.7734 36.3411 32.2228 35.1019 31.5979C33.4883 30.7851 33.3555 30.7187 32.0871 31.661C31.2411 32.2899 30.6786 32.8517 29.6885 32.6405C28.6984 32.4293 26.5468 31.2387 24.6629 29.3607C22.7789 27.4827 21.5192 25.2687 21.3074 24.2819C21.0955 23.2952 21.6666 22.7393 22.2895 21.8913C23.1674 20.696 23.101 20.4968 22.3506 18.8831C21.7656 17.628 20.1698 15.098 19.1033 14.0487C17.9625 12.9218 17.9625 13.121 17.2274 13.4265C16.6289 13.6783 16.0547 13.9844 15.5121 14.3409C14.4496 15.0468 13.8599 15.6332 13.4475 16.5144C13.0351 17.3956 12.8499 19.4615 14.9795 23.3303C17.1092 27.1992 18.6033 29.1774 21.6958 32.2613C24.7884 35.3452 27.1664 37.0034 30.6428 38.9531C34.9432 41.3616 36.5928 40.8921 37.4766 40.4804C38.3605 40.0687 38.9495 39.4843 39.6567 38.4218C40.0142 37.8801 40.321 37.3066 40.5732 36.7086C40.8793 35.9761 41.0785 35.9761 39.9496 34.8359Z" stroke="#091A2B" stroke-width="2.125" stroke-miterlimit="10"/>
<rect x="0.5" y="0.5" width="53" height="53" rx="8.5" stroke="#091A2B" stroke-opacity="0.13"/>
</svg>
