<svg width="34" height="34" viewBox="0 0 34 34" fill="none" xmlns="http://www.w3.org/2000/svg">
<path fill-rule="evenodd" clip-rule="evenodd" d="M9.47994 14.0124C9.67119 13.8214 9.93044 13.7141 10.2007 13.7141C10.471 13.7141 10.7303 13.8214 10.9215 14.0124L17.0007 20.0916L23.0799 14.0124C23.2733 13.8322 23.529 13.7342 23.7933 13.7388C24.0575 13.7435 24.3097 13.8505 24.4965 14.0374C24.6834 14.2243 24.7905 14.4764 24.7951 14.7407C24.7998 15.0049 24.7017 15.2607 24.5215 15.454L17.7215 22.254C17.5303 22.445 17.271 22.5523 17.0007 22.5523C16.7304 22.5523 16.4712 22.445 16.2799 22.254L9.47994 15.454C9.28893 15.2628 9.18164 15.0035 9.18164 14.7332C9.18164 14.4629 9.28893 14.2037 9.47994 14.0124Z" fill="black"/>
</svg>
