<svg width="30" height="28" viewBox="0 0 30 28" fill="none" xmlns="http://www.w3.org/2000/svg">
<rect width="29.2589" height="28" rx="5" fill="white"/>
<path d="M13.8598 19.6232L13.859 19.6225C11.8846 17.8321 10.2861 16.3796 9.17528 15.0206C8.06998 13.6684 7.5 12.47 7.5 11.1962C7.5 9.11543 9.12187 7.5 11.1962 7.5C12.3726 7.5 13.5099 8.05021 14.25 8.91256L14.6294 9.35464L15.0088 8.91256C15.749 8.05021 16.8863 7.5 18.0627 7.5C20.137 7.5 21.7589 9.11543 21.7589 11.1962C21.7589 12.47 21.1889 13.6684 20.0836 15.0206C18.9728 16.3796 17.3742 17.8321 15.3998 19.6225L15.3991 19.6232L14.6294 20.3238L13.8598 19.6232Z" stroke="#ADADAD"/>
</svg>
