<svg width="141" height="24" viewBox="0 0 141 24" fill="none" xmlns="http://www.w3.org/2000/svg">
<path d="M14 13.5H16.5L17.5 9.5H14V7.5C14 6.47 14 5.5 16 5.5H17.5V2.14C17.174 2.097 15.943 2 14.643 2C11.928 2 10 3.657 10 6.7V9.5H7V13.5H10V22H14V13.5Z" fill="#091A2B"/>
<path d="M61.4591 6C60.6891 6.35 59.8591 6.58 58.9991 6.69C59.8791 6.16 60.5591 5.32 60.8791 4.31C60.0491 4.81 59.1291 5.16 58.1591 5.36C57.3691 4.5 56.2591 4 54.9991 4C52.6491 4 50.7291 5.92 50.7291 8.29C50.7291 8.63 50.7691 8.96 50.8391 9.27C47.2791 9.09 44.1091 7.38 41.9991 4.79C41.6291 5.42 41.4191 6.16 41.4191 6.94C41.4191 8.43 42.1691 9.75 43.3291 10.5C42.6191 10.5 41.9591 10.3 41.3791 10V10.03C41.3791 12.11 42.8591 13.85 44.8191 14.24C44.1898 14.4122 43.5292 14.4362 42.8891 14.31C43.1607 15.1625 43.6926 15.9084 44.4101 16.4429C45.1276 16.9775 45.9945 17.2737 46.8891 17.29C45.3727 18.4904 43.4931 19.1393 41.5591 19.13C41.2191 19.13 40.8791 19.11 40.5391 19.07C42.4391 20.29 44.6991 21 47.1191 21C54.9991 21 59.3291 14.46 59.3291 8.79C59.3291 8.6 59.3291 8.42 59.3191 8.23C60.1591 7.63 60.8791 6.87 61.4591 6Z" fill="#091A2B"/>
<path d="M87.04 21.54C88 21.83 88.97 22 90 22C92.6522 22 95.1957 20.9464 97.0711 19.0711C98.9464 17.1957 100 14.6522 100 12C100 10.6868 99.7413 9.38642 99.2388 8.17317C98.7362 6.95991 97.9997 5.85752 97.0711 4.92893C96.1425 4.00035 95.0401 3.26375 93.8268 2.7612C92.6136 2.25866 91.3132 2 90 2C88.6868 2 87.3864 2.25866 86.1732 2.7612C84.9599 3.26375 83.8575 4.00035 82.9289 4.92893C81.0536 6.8043 80 9.34784 80 12C80 16.25 82.67 19.9 86.44 21.34C86.35 20.56 86.26 19.27 86.44 18.38L87.59 13.44C87.59 13.44 87.3 12.86 87.3 11.94C87.3 10.56 88.16 9.53 89.14 9.53C90 9.53 90.4 10.16 90.4 10.97C90.4 11.83 89.83 13.06 89.54 14.24C89.37 15.22 90.06 16.08 91.06 16.08C92.84 16.08 94.22 14.18 94.22 11.5C94.22 9.1 92.5 7.46 90.03 7.46C87.21 7.46 85.55 9.56 85.55 11.77C85.55 12.63 85.83 13.5 86.29 14.07C86.38 14.13 86.38 14.21 86.35 14.36L86.06 15.45C86.06 15.62 85.95 15.68 85.78 15.56C84.5 15 83.76 13.18 83.76 11.71C83.76 8.55 86 5.68 90.32 5.68C93.76 5.68 96.44 8.15 96.44 11.43C96.44 14.87 94.31 17.63 91.26 17.63C90.29 17.63 89.34 17.11 89 16.5L88.33 18.87C88.1 19.73 87.47 20.88 87.04 21.57V21.54Z" fill="#091A2B"/>
<path d="M124.8 2H133.2C136.4 2 139 4.6 139 7.8V16.2C139 17.7383 138.389 19.2135 137.301 20.3012C136.214 21.3889 134.738 22 133.2 22H124.8C121.6 22 119 19.4 119 16.2V7.8C119 6.26174 119.611 4.78649 120.699 3.69878C121.786 2.61107 123.262 2 124.8 2ZM124.6 4C123.645 4 122.73 4.37928 122.054 5.05442C121.379 5.72955 121 6.64522 121 7.6V16.4C121 18.39 122.61 20 124.6 20H133.4C134.355 20 135.27 19.6207 135.946 18.9456C136.621 18.2705 137 17.3548 137 16.4V7.6C137 5.61 135.39 4 133.4 4H124.6ZM134.25 5.5C134.582 5.5 134.899 5.6317 135.134 5.86612C135.368 6.10054 135.5 6.41848 135.5 6.75C135.5 7.08152 135.368 7.39946 135.134 7.63388C134.899 7.8683 134.582 8 134.25 8C133.918 8 133.601 7.8683 133.366 7.63388C133.132 7.39946 133 7.08152 133 6.75C133 6.41848 133.132 6.10054 133.366 5.86612C133.601 5.6317 133.918 5.5 134.25 5.5ZM129 7C130.326 7 131.598 7.52678 132.536 8.46447C133.473 9.40215 134 10.6739 134 12C134 13.3261 133.473 14.5979 132.536 15.5355C131.598 16.4732 130.326 17 129 17C127.674 17 126.402 16.4732 125.464 15.5355C124.527 14.5979 124 13.3261 124 12C124 10.6739 124.527 9.40215 125.464 8.46447C126.402 7.52678 127.674 7 129 7ZM129 9C128.204 9 127.441 9.31607 126.879 9.87868C126.316 10.4413 126 11.2044 126 12C126 12.7956 126.316 13.5587 126.879 14.1213C127.441 14.6839 128.204 15 129 15C129.796 15 130.559 14.6839 131.121 14.1213C131.684 13.5587 132 12.7956 132 12C132 11.2044 131.684 10.4413 131.121 9.87868C130.559 9.31607 129.796 9 129 9Z" fill="#091A2B"/>
</svg>
