<svg width="25" height="25" viewBox="0 0 25 25" fill="none" xmlns="http://www.w3.org/2000/svg">
<path d="M4.50195 20.4863C3.95195 20.4863 3.48095 20.2903 3.08895 19.8983C2.69695 19.5063 2.50129 19.0357 2.50195 18.4863V6.48633C2.50195 5.93633 2.69795 5.46533 3.08995 5.07333C3.48195 4.68133 3.95262 4.48566 4.50195 4.48633H20.502C21.052 4.48633 21.523 4.68233 21.915 5.07433C22.307 5.46633 22.5026 5.937 22.502 6.48633V18.4863C22.502 19.0363 22.306 19.5073 21.914 19.8993C21.522 20.2913 21.0513 20.487 20.502 20.4863H4.50195ZM12.502 13.4863L4.50195 8.48633V18.4863H20.502V8.48633L12.502 13.4863ZM12.502 11.4863L20.502 6.48633H4.50195L12.502 11.4863ZM4.50195 8.48633V6.48633V18.4863V8.48633Z" fill="white"/>
</svg>
