<svg width="37" height="37" viewBox="0 0 37 37" fill="none" xmlns="http://www.w3.org/2000/svg">
<path d="M29.264 19.1924H12.764C12.4657 19.1924 12.1795 19.0738 11.9685 18.8628C11.7575 18.6519 11.639 18.3657 11.639 18.0674C11.639 17.769 11.7575 17.4828 11.9685 17.2719C12.1795 17.0609 12.4657 16.9424 12.764 16.9424H29.264C29.5624 16.9424 29.8485 17.0609 30.0595 17.2719C30.2705 17.4828 30.389 17.769 30.389 18.0674C30.389 18.3657 30.2705 18.6519 30.0595 18.8628C29.8485 19.0738 29.5624 19.1924 29.264 19.1924ZM29.264 12.4423H12.764C12.4657 12.4423 12.1795 12.3238 11.9685 12.1128C11.7575 11.9019 11.639 11.6157 11.639 11.3173C11.639 11.019 11.7575 10.7328 11.9685 10.5219C12.1795 10.3109 12.4657 10.1923 12.764 10.1923H29.264C29.5624 10.1923 29.8485 10.3109 30.0595 10.5219C30.2705 10.7328 30.389 11.019 30.389 11.3173C30.389 11.6157 30.2705 11.9019 30.0595 12.1128C29.8485 12.3238 29.5624 12.4423 29.264 12.4423ZM29.264 25.9424H12.764C12.4657 25.9424 12.1795 25.8238 11.9685 25.6128C11.7575 25.4019 11.639 25.1157 11.639 24.8174C11.639 24.519 11.7575 24.2328 11.9685 24.0219C12.1795 23.8109 12.4657 23.6924 12.764 23.6924H29.264C29.5624 23.6924 29.8485 23.8109 30.0595 24.0219C30.2705 24.2328 30.389 24.519 30.389 24.8174C30.389 25.1157 30.2705 25.4019 30.0595 25.6128C29.8485 25.8238 29.5624 25.9424 29.264 25.9424ZM8.26402 12.8173C8.069 12.8197 7.87539 12.7841 7.69402 12.7124C7.51478 12.6254 7.34824 12.5144 7.19902 12.3823C7.06 12.2422 6.95001 12.076 6.87536 11.8932C6.80072 11.7105 6.76288 11.5148 6.76402 11.3173C6.76955 10.9202 6.92492 10.5398 7.19902 10.2523C7.33982 10.1134 7.50856 10.0061 7.69402 9.93735C8.05921 9.78732 8.46883 9.78732 8.83402 9.93735C9.01815 10.0087 9.18637 10.1158 9.32902 10.2523C9.60312 10.5398 9.7585 10.9202 9.76402 11.3173C9.76516 11.5148 9.72732 11.7105 9.65268 11.8932C9.57803 12.076 9.46804 12.2422 9.32902 12.3823C9.1798 12.5144 9.01326 12.6254 8.83402 12.7124C8.65265 12.7841 8.45904 12.8197 8.26402 12.8173ZM8.26402 19.5674C8.06801 19.565 7.87435 19.5242 7.69402 19.4474C7.51224 19.3714 7.34482 19.2648 7.19902 19.1324C7.06 18.9922 6.95001 18.826 6.87536 18.6432C6.80072 18.4605 6.76288 18.2648 6.76402 18.0674C6.76955 17.6702 6.92492 17.2898 7.19902 17.0024C7.34482 16.8699 7.51224 16.7633 7.69402 16.6874C7.96555 16.5614 8.26854 16.5197 8.56402 16.5674L8.83402 16.6574L9.10402 16.7923C9.1826 16.8477 9.25774 16.9078 9.32902 16.9724C9.61023 17.2673 9.76615 17.6598 9.76402 18.0674C9.76402 18.4652 9.60599 18.8467 9.32468 19.128C9.04338 19.4093 8.66185 19.5674 8.26402 19.5674ZM8.26402 26.3174C8.069 26.3197 7.87539 26.2841 7.69402 26.2124C7.51478 26.1254 7.34824 26.0144 7.19902 25.8823C7.06652 25.7365 6.95998 25.5691 6.88402 25.3873C6.80466 25.2078 6.76367 25.0137 6.76367 24.8174C6.76367 24.621 6.80466 24.4269 6.88402 24.2474C6.95998 24.0656 7.06652 23.8982 7.19902 23.7524C7.40996 23.5442 7.67782 23.4032 7.9688 23.3472C8.25978 23.2911 8.56085 23.3225 8.83402 23.4373C9.01815 23.5087 9.18637 23.6158 9.32902 23.7524C9.46152 23.8982 9.56806 24.0656 9.64402 24.2474C9.72338 24.4269 9.76437 24.621 9.76437 24.8174C9.76437 25.0137 9.72338 25.2078 9.64402 25.3873C9.56806 25.5691 9.46152 25.7365 9.32902 25.8823C9.18886 26.0214 9.02264 26.1314 8.83988 26.206C8.65712 26.2807 8.46143 26.3185 8.26402 26.3174Z" fill="white"/>
</svg>
