<svg width="25" height="26" viewBox="0 0 25 26" fill="none" xmlns="http://www.w3.org/2000/svg">
<path d="M12.5026 12.4779C11.8119 12.4779 11.1496 12.2035 10.6612 11.7151C10.1728 11.2267 9.89844 10.5644 9.89844 9.8737C9.89844 9.18303 10.1728 8.52065 10.6612 8.03227C11.1496 7.5439 11.8119 7.26953 12.5026 7.26953C13.1933 7.26953 13.8557 7.5439 14.344 8.03227C14.8324 8.52065 15.1068 9.18303 15.1068 9.8737C15.1068 10.2157 15.0394 10.5543 14.9085 10.8703C14.7777 11.1862 14.5858 11.4733 14.344 11.7151C14.1022 11.9569 13.8151 12.1488 13.4992 12.2796C13.1832 12.4105 12.8446 12.4779 12.5026 12.4779ZM12.5026 2.58203C10.5687 2.58203 8.71407 3.35026 7.34662 4.71771C5.97916 6.08516 5.21094 7.93983 5.21094 9.8737C5.21094 15.3424 12.5026 23.4154 12.5026 23.4154C12.5026 23.4154 19.7943 15.3424 19.7943 9.8737C19.7943 7.93983 19.026 6.08516 17.6586 4.71771C16.2911 3.35026 14.4365 2.58203 12.5026 2.58203Z" fill="#ABABAB"/>
</svg>
