<svg width="177" height="53" viewBox="0 0 177 53" fill="none" xmlns="http://www.w3.org/2000/svg">
<path d="M34.7133 10.2397C34.6784 10.4341 34.5597 10.6033 34.3887 10.7023L27.6334 14.6133C27.2929 14.8104 26.8576 14.6732 26.6828 14.3207C25.163 11.256 23.4549 9.20279 18.8725 9.20279C13.0955 9.20279 11.0803 12.2928 11.0803 15.1812C11.0803 25.4588 37.4124 19.2788 37.4124 36.8112C37.4124 45.275 31.2324 53 18.8725 53C9.06838 53 3.72003 48.9208 0.0977841 43.0674C-0.106374 42.7375 0.0212992 42.306 0.367817 42.1316L8.57274 38C8.91436 37.828 9.32969 37.9766 9.49511 38.3214C11.2607 42.0022 13.5324 44.4689 18.8725 44.4689C24.8509 44.4689 26.9333 41.379 26.9333 38.3561C26.9333 27.6084 0.60124 34.057 0.60124 16.8606C0.60124 8.79975 6.37817 0.671736 18.8725 0.671736C26.8532 0.671736 31.5311 3.45645 34.9409 7.69055C35.0611 7.83976 35.1091 8.03433 35.0753 8.2229L34.7133 10.2397Z" fill="#CDFF7A"/>
<path d="M74.8079 29.1851C74.8082 29.2524 74.7981 29.3204 74.7782 29.3847L72.9233 35.3822C72.8441 35.638 72.6207 35.8224 72.3546 35.8515L51.525 38.1307C51.0979 38.1775 50.8231 38.6086 50.9869 39.0058C52.2916 42.1692 54.7462 44.4689 58.3506 44.4689C61.9813 44.4689 64.6786 43.0106 66.3339 40.855C66.5407 40.5856 66.9082 40.4863 67.2114 40.6392L74.1395 44.1318C74.4964 44.3118 74.619 44.7625 74.3891 45.0896C71.1268 49.7335 65.8845 53 58.485 53C45.5876 53 39.0046 43.1255 39.0046 33.1838C39.0046 23.3093 45.5876 13.3676 58.0148 13.3676C67.654 13.3676 74.7584 19.4378 74.8079 29.1851ZM50.5215 28.709C50.3947 29.153 50.7682 29.5686 51.2269 29.5158L63.0285 28.1586C63.4081 28.115 63.6772 27.763 63.5909 27.3908C62.797 23.9701 60.3147 21.8986 57.4774 21.8986C54.0527 21.8986 51.6093 24.8999 50.5215 28.709Z" fill="#CDFF7A"/>
<path d="M100.628 49.7841C100.803 50.0838 100.721 50.4687 100.431 50.6592C98.1934 52.1299 95.6076 53 92.6737 53C86.2922 53 79.9107 48.9024 79.9107 40.9087V23.2421C79.9107 22.8711 79.61 22.5703 79.239 22.5703H78.097C77.7261 22.5703 77.4253 22.2696 77.4253 21.8986V14.711C77.4253 14.34 77.7261 14.0393 78.097 14.0393H79.239C79.61 14.0393 79.9107 13.7385 79.9107 13.3676V4.70215C79.9107 4.33116 80.2115 4.03042 80.5825 4.03042H89.9196C90.2906 4.03042 90.5913 4.33116 90.5913 4.70215V13.3676C90.5913 13.7385 90.8921 14.0393 91.2631 14.0393H101.6V22.5703H91.2631C90.8921 22.5703 90.5913 22.8711 90.5913 23.2421V41.5805C90.5913 43.5285 92.002 44.4689 93.3455 44.4689C94.2589 44.4689 95.0573 44.0856 95.7697 43.3768C96.1142 43.034 96.7109 43.0609 96.9555 43.4808L100.628 49.7841Z" fill="#CDFF7A"/>
<path d="M124.803 49.7841C124.977 50.0838 124.896 50.4687 124.606 50.6592C122.368 52.1299 119.782 53 116.848 53C110.467 53 104.085 48.9024 104.085 40.9087V23.2421C104.085 22.8711 103.785 22.5703 103.414 22.5703H101.6V14.0393H103.414C103.785 14.0393 104.085 13.7385 104.085 13.3676V4.70215C104.085 4.33116 104.386 4.03042 104.757 4.03042H114.094C114.465 4.03042 114.766 4.33116 114.766 4.70215V13.3676C114.766 13.7385 115.067 14.0393 115.438 14.0393H124.139C124.608 14.0393 124.933 14.5091 124.767 14.9485L122.05 22.1361C121.952 22.3974 121.702 22.5703 121.422 22.5703H115.438C115.067 22.5703 114.766 22.8711 114.766 23.2421V41.5805C114.766 43.5285 116.177 44.4689 117.52 44.4689C118.434 44.4689 119.232 44.0856 119.944 43.3768C120.289 43.034 120.886 43.0609 121.13 43.4808L124.803 49.7841Z" fill="#CDFF7A"/>
<path d="M127.185 0.671738C127.185 0.300748 127.486 0 127.857 0H137.194C137.565 0 137.866 0.300747 137.866 0.671736V51.6565C137.866 52.0275 137.565 52.3283 137.194 52.3283H127.857C127.486 52.3283 127.185 52.0275 127.185 51.6565V0.671738Z" fill="#CDFF7A"/>
<path d="M176.951 29.1851C176.952 29.2524 176.941 29.3204 176.921 29.3847L175.067 35.3822C174.987 35.638 174.764 35.8224 174.498 35.8515L153.668 38.1307C153.241 38.1775 152.966 38.6086 153.13 39.0058C154.435 42.1692 156.889 44.4689 160.494 44.4689C164.125 44.4689 166.822 43.0106 168.477 40.855C168.684 40.5856 169.051 40.4863 169.355 40.6392L176.283 44.1318C176.64 44.3118 176.762 44.7625 176.532 45.0896C173.27 49.7335 168.028 53 160.628 53C147.731 53 141.148 43.1255 141.148 33.1838C141.148 23.3093 147.731 13.3676 160.158 13.3676C169.797 13.3676 176.902 19.4378 176.951 29.1851ZM152.665 28.709C152.538 29.153 152.911 29.5686 153.37 29.5158L165.172 28.1586C165.551 28.115 165.821 27.763 165.734 27.3908C164.94 23.9701 162.458 21.8986 159.621 21.8986C156.196 21.8986 153.753 24.8999 152.665 28.709Z" fill="#CDFF7A"/>
</svg>
