<svg width="121" height="35" viewBox="0 0 121 35" fill="none" xmlns="http://www.w3.org/2000/svg">
<path d="M24.2431 19.8674C15.4917 17.6796 2 27.5249 2 27.5249V14.7625L16.221 2L31.9006 14.7625V24.6078C31.9006 24.6078 22.0992 23.9342 16.221 25.7017C10.7901 27.3347 7.78654 28.9652 3.45857 32.6299" stroke="white" stroke-width="2.91713" stroke-linecap="round"/>
<path d="M6.55859 10.3912V2.7251" stroke="white" stroke-width="2.91713" stroke-linecap="round"/>
<path d="M58.7614 10.2539C58.7462 10.3383 58.6946 10.4118 58.6204 10.4548L55.6868 12.1532C55.5389 12.2388 55.3499 12.1792 55.2739 12.0262C54.614 10.6952 53.8722 9.8036 51.8822 9.8036C49.3735 9.8036 48.4983 11.1455 48.4983 12.3999C48.4983 16.8631 59.9335 14.1793 59.9335 21.793C59.9335 25.4686 57.2497 28.8233 51.8822 28.8233C47.6246 28.8233 45.302 27.0518 43.729 24.5099C43.6403 24.3666 43.6957 24.1793 43.8462 24.1035L47.4093 22.3093C47.5577 22.2346 47.7381 22.2991 47.8099 22.4489C48.5766 24.0473 49.5632 25.1186 51.8822 25.1186C54.4784 25.1186 55.3827 23.7767 55.3827 22.464C55.3827 17.7965 43.9476 20.597 43.9476 13.1291C43.9476 9.62857 46.4563 6.09884 51.8822 6.09884C55.3479 6.09884 57.3794 7.30815 58.8602 9.14689C58.9124 9.21168 58.9332 9.29618 58.9185 9.37807L58.7614 10.2539Z" fill="white"/>
<path d="M76.1731 18.4813C76.1733 18.5105 76.1689 18.54 76.1602 18.5679L75.3547 21.1725C75.3203 21.2836 75.2233 21.3636 75.1077 21.3763L66.0621 22.3661C65.8767 22.3864 65.7573 22.5736 65.8285 22.7461C66.395 24.1198 67.461 25.1186 69.0263 25.1186C70.6029 25.1186 71.7743 24.4853 72.4931 23.5491C72.583 23.4322 72.7425 23.389 72.8742 23.4554L75.8829 24.9722C76.0379 25.0503 76.0911 25.246 75.9913 25.3881C74.5746 27.4048 72.298 28.8233 69.0846 28.8233C63.4837 28.8233 60.6249 24.5351 60.6249 20.2178C60.6249 15.9296 63.4837 11.6122 68.8804 11.6122C73.0664 11.6122 76.1516 14.2483 76.1731 18.4813ZM65.6264 18.2745C65.5713 18.4673 65.7335 18.6478 65.9327 18.6249L71.0577 18.0355C71.2226 18.0166 71.3395 17.8637 71.3019 17.7021C70.9572 16.2166 69.8792 15.317 68.647 15.317C67.1598 15.317 66.0987 16.6204 65.6264 18.2745Z" fill="white"/>
<path d="M87.3859 27.4268C87.4618 27.5569 87.4264 27.724 87.3005 27.8068C86.3287 28.4454 85.2058 28.8233 83.9317 28.8233C81.1604 28.8233 78.3891 27.0439 78.3891 23.5725V15.9004C78.3891 15.7393 78.2585 15.6087 78.0974 15.6087H77.6015C77.4404 15.6087 77.3098 15.4781 77.3098 15.317V12.1957C77.3098 12.0345 77.4404 11.9039 77.6015 11.9039H78.0974C78.2585 11.9039 78.3891 11.7733 78.3891 11.6122V7.84912C78.3891 7.68801 78.5197 7.55741 78.6808 7.55741H82.7357C82.8968 7.55741 83.0274 7.68801 83.0274 7.84912V11.6122C83.0274 11.7733 83.158 11.9039 83.3191 11.9039H87.8081V15.6087H83.3191C83.158 15.6087 83.0274 15.7393 83.0274 15.9004V23.8642C83.0274 24.7102 83.64 25.1186 84.2234 25.1186C84.6201 25.1186 84.9668 24.9521 85.2762 24.6443C85.4258 24.4954 85.6849 24.5071 85.7911 24.6894L87.3859 27.4268Z" fill="white"/>
<path d="M97.8842 27.4268C97.96 27.5569 97.9246 27.724 97.7987 27.8068C96.827 28.4454 95.704 28.8233 94.4299 28.8233C91.6587 28.8233 88.8874 27.0439 88.8874 23.5725V15.9004C88.8874 15.7393 88.7568 15.6087 88.5957 15.6087H87.8081V11.9039H88.5957C88.7568 11.9039 88.8874 11.7733 88.8874 11.6122V7.84912C88.8874 7.68801 89.018 7.55741 89.1791 7.55741H93.2339C93.395 7.55741 93.5256 7.68801 93.5256 7.84912V11.6122C93.5256 11.7733 93.6562 11.9039 93.8173 11.9039H97.5959C97.7999 11.9039 97.9409 12.108 97.8688 12.2988L96.6891 15.4201C96.6462 15.5336 96.5375 15.6087 96.4162 15.6087H93.8173C93.6562 15.6087 93.5256 15.7393 93.5256 15.9004V23.8642C93.5256 24.7102 94.1382 25.1186 94.7217 25.1186C95.1183 25.1186 95.4651 24.9521 95.7744 24.6443C95.924 24.4954 96.1832 24.5071 96.2894 24.6894L97.8842 27.4268Z" fill="white"/>
<path d="M98.9189 6.09884C98.9189 5.93773 99.0495 5.80713 99.2106 5.80713H103.265C103.427 5.80713 103.557 5.93773 103.557 6.09884V28.2399C103.557 28.401 103.427 28.5316 103.265 28.5316H99.2106C99.0495 28.5316 98.9189 28.401 98.9189 28.2399V6.09884Z" fill="white"/>
<path d="M120.531 18.4813C120.531 18.5105 120.526 18.54 120.518 18.5679L119.712 21.1725C119.678 21.2836 119.581 21.3636 119.465 21.3763L110.42 22.3661C110.234 22.3864 110.115 22.5736 110.186 22.7461C110.753 24.1198 111.818 25.1186 113.384 25.1186C114.96 25.1186 116.132 24.4853 116.851 23.5491C116.94 23.4322 117.1 23.389 117.232 23.4554L120.24 24.9722C120.395 25.0503 120.449 25.246 120.349 25.3881C118.932 27.4048 116.655 28.8233 113.442 28.8233C107.841 28.8233 104.982 24.5351 104.982 20.2178C104.982 15.9296 107.841 11.6122 113.238 11.6122C117.424 11.6122 120.509 14.2483 120.531 18.4813ZM109.984 18.2745C109.929 18.4673 110.091 18.6478 110.29 18.6249L115.415 18.0355C115.58 18.0166 115.697 17.8637 115.659 17.7021C115.315 16.2166 114.237 15.317 113.005 15.317C111.517 15.317 110.456 16.6204 109.984 18.2745Z" fill="white"/>
</svg>
