<svg width="112" height="32" viewBox="0 0 112 32" fill="none" xmlns="http://www.w3.org/2000/svg">
<path d="M22.0593 18.6177C13.9182 16.5824 1.36719 25.7412 1.36719 25.7412V13.8686L14.5966 1.99609L29.1829 13.8686V23.0275C29.1829 23.0275 20.0649 22.4009 14.5966 24.0451C9.54441 25.5642 6.75024 27.0811 2.72405 30.4902" stroke="white" stroke-width="2.71373" stroke-linecap="round"/>
<path d="M5.60742 9.80226V2.67065" stroke="white" stroke-width="2.71373" stroke-linecap="round"/>
<path d="M54.1707 9.67429C54.1566 9.75284 54.1086 9.82121 54.0396 9.8612L51.3105 11.4412C51.173 11.5208 50.9971 11.4654 50.9265 11.323C50.3125 10.0849 49.6225 9.2554 47.7712 9.2554C45.4374 9.2554 44.6233 10.5037 44.6233 11.6706C44.6233 15.8226 55.2611 13.326 55.2611 20.4088C55.2611 23.8281 52.7645 26.9489 47.7712 26.9489C43.8105 26.9489 41.6498 25.301 40.1865 22.9363C40.104 22.803 40.1556 22.6287 40.2956 22.5582L43.6103 20.8891C43.7483 20.8196 43.9161 20.8796 43.9829 21.0189C44.6962 22.5059 45.6139 23.5025 47.7712 23.5025C50.1864 23.5025 51.0277 22.2541 51.0277 21.033C51.0277 16.691 40.3899 19.2962 40.3899 12.3491C40.3899 9.09258 42.7237 5.80897 47.7712 5.80897C50.9953 5.80897 52.8851 6.93396 54.2627 8.64448C54.3112 8.70476 54.3306 8.78336 54.317 8.85954L54.1707 9.67429Z" fill="white"/>
<path d="M70.3684 17.328C70.3685 17.3552 70.3644 17.3826 70.3564 17.4086L69.607 19.8316C69.5751 19.9349 69.4848 20.0094 69.3773 20.0211L60.9624 20.9419C60.7899 20.9608 60.6789 21.135 60.745 21.2954C61.2721 22.5734 62.2637 23.5025 63.7199 23.5025C65.1866 23.5025 66.2763 22.9133 66.945 22.0425C67.0286 21.9337 67.177 21.8935 67.2995 21.9553L70.0984 23.3663C70.2426 23.439 70.2921 23.621 70.1992 23.7532C68.8813 25.6293 66.7634 26.9489 63.7742 26.9489C58.5638 26.9489 55.9043 22.9597 55.9043 18.9434C55.9043 14.9542 58.5638 10.9379 63.5842 10.9379C67.4783 10.9379 70.3484 13.3902 70.3684 17.328ZM60.557 17.1356C60.5058 17.315 60.6567 17.4829 60.842 17.4616L65.6097 16.9133C65.763 16.8957 65.8718 16.7535 65.8369 16.6031C65.5162 15.2212 64.5134 14.3843 63.3671 14.3843C61.9836 14.3843 60.9965 15.5968 60.557 17.1356Z" fill="white"/>
<path d="M80.7993 25.6497C80.8699 25.7708 80.837 25.9263 80.7199 26.0032C79.8158 26.5974 78.7712 26.9489 77.586 26.9489C75.0079 26.9489 72.4299 25.2935 72.4299 22.0642V14.9271C72.4299 14.7772 72.3084 14.6557 72.1585 14.6557H71.6972C71.5473 14.6557 71.4258 14.5342 71.4258 14.3843V11.4807C71.4258 11.3308 71.5473 11.2093 71.6972 11.2093H72.1585C72.3084 11.2093 72.4299 11.0878 72.4299 10.9379V7.43721C72.4299 7.28733 72.5514 7.16583 72.7012 7.16583H76.4733C76.6232 7.16583 76.7447 7.28733 76.7447 7.43721V10.9379C76.7447 11.0878 76.8662 11.2093 77.0161 11.2093H81.192V14.6557H77.0161C76.8662 14.6557 76.7447 14.7772 76.7447 14.9271V22.3356C76.7447 23.1225 77.3146 23.5025 77.8573 23.5025C78.2263 23.5025 78.5489 23.3476 78.8367 23.0613C78.9759 22.9228 79.2169 22.9336 79.3157 23.1033L80.7993 25.6497Z" fill="white"/>
<path d="M90.5656 25.6497C90.6361 25.7708 90.6032 25.9263 90.4861 26.0032C89.5821 26.5974 88.5374 26.9489 87.3522 26.9489C84.7741 26.9489 82.1961 25.2935 82.1961 22.0642V14.9271C82.1961 14.7772 82.0746 14.6557 81.9247 14.6557H81.192V11.2093H81.9247C82.0746 11.2093 82.1961 11.0878 82.1961 10.9379V7.43721C82.1961 7.28733 82.3176 7.16583 82.4675 7.16583H86.2396C86.3894 7.16583 86.5109 7.28733 86.5109 7.43721V10.9379C86.5109 11.0878 86.6324 11.2093 86.7823 11.2093H90.2974C90.4872 11.2093 90.6183 11.3991 90.5512 11.5766L89.4538 14.4803C89.4139 14.5859 89.3128 14.6557 89.1999 14.6557H86.7823C86.6324 14.6557 86.5109 14.7772 86.5109 14.9271V22.3356C86.5109 23.1225 87.0808 23.5025 87.6236 23.5025C87.9926 23.5025 88.3151 23.3476 88.6029 23.0613C88.7421 22.9228 88.9831 22.9336 89.082 23.1033L90.5656 25.6497Z" fill="white"/>
<path d="M91.5281 5.80897C91.5281 5.65909 91.6496 5.5376 91.7995 5.5376H95.5716C95.7215 5.5376 95.843 5.6591 95.843 5.80897V26.4061C95.843 26.556 95.7215 26.6775 95.5716 26.6775H91.7995C91.6496 26.6775 91.5281 26.556 91.5281 26.4061V5.80897Z" fill="white"/>
<path d="M111.633 17.328C111.633 17.3552 111.629 17.3826 111.621 17.4086L110.872 19.8316C110.84 19.9349 110.749 20.0094 110.642 20.0211L102.227 20.9419C102.054 20.9608 101.943 21.135 102.01 21.2954C102.537 22.5734 103.528 23.5025 104.984 23.5025C106.451 23.5025 107.541 22.9133 108.21 22.0425C108.293 21.9337 108.442 21.8935 108.564 21.9553L111.363 23.3663C111.507 23.439 111.557 23.621 111.464 23.7532C110.146 25.6293 108.028 26.9489 105.039 26.9489C99.8283 26.9489 97.1689 22.9597 97.1689 18.9434C97.1689 14.9542 99.8283 10.9379 104.849 10.9379C108.743 10.9379 111.613 13.3902 111.633 17.328ZM101.822 17.1356C101.77 17.315 101.921 17.4829 102.107 17.4616L106.874 16.9133C107.028 16.8957 107.136 16.7535 107.101 16.6031C106.781 15.2212 105.778 14.3843 104.632 14.3843C103.248 14.3843 102.261 15.5968 101.822 17.1356Z" fill="white"/>
</svg>
