<svg width="25" height="25" viewBox="0 0 25 25" fill="none" xmlns="http://www.w3.org/2000/svg">
<path d="M12.5 11.9792C11.8093 11.9792 11.147 11.7048 10.6586 11.2165C10.1702 10.7281 9.89584 10.0657 9.89584 9.37504C9.89584 8.68437 10.1702 8.02199 10.6586 7.53362C11.147 7.04524 11.8093 6.77087 12.5 6.77087C13.1907 6.77087 13.8531 7.04524 14.3414 7.53362C14.8298 8.02199 15.1042 8.68437 15.1042 9.37504C15.1042 9.71702 15.0368 10.0557 14.9059 10.3716C14.7751 10.6876 14.5833 10.9746 14.3414 11.2165C14.0996 11.4583 13.8125 11.6501 13.4966 11.781C13.1806 11.9118 12.842 11.9792 12.5 11.9792ZM12.5 2.08337C10.5661 2.08337 8.71148 2.8516 7.34402 4.21905C5.97657 5.58651 5.20834 7.44117 5.20834 9.37504C5.20834 14.8438 12.5 22.9167 12.5 22.9167C12.5 22.9167 19.7917 14.8438 19.7917 9.37504C19.7917 7.44117 19.0234 5.58651 17.656 4.21905C16.2885 2.8516 14.4339 2.08337 12.5 2.08337Z" fill="white"/>
</svg>
