<svg width="38" height="38" viewBox="0 0 38 38" fill="none" xmlns="http://www.w3.org/2000/svg">
<path d="M22.2773 22.1145V9.92567M22.2773 22.1145L31.5743 27.4274C31.7133 27.5069 31.8706 27.5485 32.0307 27.5481C32.1908 27.5477 32.3479 27.5052 32.4865 27.425C32.625 27.3448 32.74 27.2296 32.82 27.091C32.9001 26.9524 32.9423 26.7951 32.9425 26.6351V5.40512C32.9426 5.24492 32.9005 5.08752 32.8206 4.94868C32.7407 4.80984 32.6257 4.69444 32.4871 4.61405C32.3485 4.53365 32.1913 4.49108 32.0311 4.4906C31.8709 4.49013 31.7134 4.53176 31.5743 4.61132L22.2773 9.92567M22.2773 22.1145H11.612M22.2773 9.92567H11.612C9.99567 9.92567 8.44552 10.5678 7.3026 11.7107C6.15967 12.8536 5.51758 14.4038 5.51758 16.0201C5.51758 17.6364 6.15967 19.1866 7.3026 20.3295C8.44552 21.4724 9.99567 22.1145 11.612 22.1145M11.612 22.1145L12.7654 30.1897C12.8857 30.9753 13.3113 31.6817 13.9495 32.1554C14.5878 32.6291 15.3872 32.8317 16.174 32.7193C16.9608 32.6069 17.6715 32.1885 18.1516 31.5551C18.6317 30.9217 18.8424 30.1244 18.7379 29.3364L17.7064 22.1145H11.612Z" stroke="#F1F3F4" stroke-width="2.28541"/>
</svg>
