<svg width="123" height="122" viewBox="0 0 123 122" fill="none" xmlns="http://www.w3.org/2000/svg">
<path d="M20.0918 102.408C19.1389 103.361 19.1357 104.91 20.1259 105.824C29.4613 114.441 41.2727 119.943 53.919 121.527C67.3736 123.212 81.0063 120.366 92.663 113.439C104.32 106.512 113.336 95.8981 118.288 83.2747C123.239 70.6513 123.843 56.7379 120.005 43.7327C116.167 30.7276 108.104 19.372 97.0922 11.4602C86.0799 3.54833 72.7454 -0.468764 59.1953 0.0435541C45.6452 0.555872 32.652 5.56839 22.2686 14.2892C12.5091 22.486 5.57804 33.5197 2.4177 45.8249C2.08248 47.1301 2.92622 48.429 4.24379 48.7118L4.65251 48.7995C5.97008 49.0823 7.2621 48.2416 7.60228 46.9377C10.5122 35.7838 16.8184 25.7855 25.676 18.3462C35.1576 10.3828 47.0222 5.80562 59.3955 5.3378C71.7687 4.86998 83.9451 8.53817 94.0009 15.7629C104.057 22.9875 111.419 33.3568 114.924 45.2324C118.429 57.1081 117.877 69.813 113.355 81.3401C108.834 92.8671 100.601 102.559 89.9564 108.885C79.3121 115.21 66.8635 117.809 54.5774 116.27C43.0998 114.833 32.3754 109.861 23.8754 102.074C22.8817 101.164 21.3403 101.16 20.3874 102.113L20.0918 102.408Z" fill="#9E0042"/>
<circle cx="61.5" cy="61" r="50" fill="#FFC8DF"/>
<path d="M81.6663 72.7915V59.1527C81.6663 57.8399 81.6663 57.1836 81.5065 56.5714C81.3651 56.0303 81.1323 55.5174 80.8182 55.0546C80.4618 54.531 79.9701 54.0959 78.9794 53.233L67.1794 42.908C65.3455 41.3027 64.426 40.4989 63.3935 40.194C62.484 39.9236 61.5154 39.9236 60.6033 40.194C59.5708 40.4989 58.6563 41.3003 56.8224 42.9031L45.02 53.233C44.0317 54.0984 43.5376 54.531 43.1836 55.0522C42.8684 55.5155 42.6348 56.0294 42.4928 56.5714C42.333 57.1811 42.333 57.8399 42.333 59.1527V72.7915C42.333 75.0827 42.333 76.2283 42.7067 77.1305C42.9535 77.7272 43.3154 78.2694 43.7718 78.7262C44.2282 79.1831 44.7701 79.5455 45.3666 79.7929C46.2713 80.1665 47.4168 80.1665 49.708 80.1665C51.9992 80.1665 53.1448 80.1665 54.0494 79.7929C54.6459 79.5455 55.1878 79.1831 55.6442 78.7262C56.1006 78.2694 56.4625 77.7272 56.7093 77.1305C57.083 76.2283 57.083 75.0827 57.083 72.7915V70.3332C57.083 69.0292 57.601 67.7786 58.5231 66.8566C59.4451 65.9345 60.6957 65.4165 61.9997 65.4165C63.3037 65.4165 64.5542 65.9345 65.4763 66.8566C66.3983 67.7786 66.9163 69.0292 66.9163 70.3332V72.7915C66.9163 75.0827 66.9163 76.2283 67.29 77.1305C67.5368 77.7272 67.8988 78.2694 68.3551 78.7262C68.8115 79.1831 69.3534 79.5455 69.9499 79.7929C70.8546 80.1665 72.0002 80.1665 74.2913 80.1665C76.5825 80.1665 77.7281 80.1665 78.6328 79.7929C79.2292 79.5455 79.7711 79.1831 80.2275 78.7262C80.6839 78.2694 81.0459 77.7272 81.2927 77.1305C81.6663 76.2283 81.6663 75.0827 81.6663 72.7915Z" stroke="#9E0042" stroke-width="4.91667" stroke-linecap="round" stroke-linejoin="round"/>
</svg>
