<svg width="37" height="37" viewBox="0 0 37 37" fill="none" xmlns="http://www.w3.org/2000/svg">
<path d="M29.8962 20.0678C29.5662 20.0678 29.2212 19.9628 28.8912 19.8878C28.223 19.7405 27.5662 19.545 26.9262 19.3028C26.2304 19.0496 25.4655 19.0628 24.7787 19.3397C24.0919 19.6166 23.5319 20.1377 23.2062 20.8028L22.8762 21.4778C21.4152 20.6651 20.0727 19.6556 18.8862 18.4778C17.7084 17.2913 16.699 15.9488 15.8862 14.4878L16.5162 14.0678C17.1813 13.7422 17.7024 13.1821 17.9793 12.4953C18.2562 11.8086 18.2694 11.0437 18.0162 10.3478C17.7781 9.70643 17.5826 9.04999 17.4312 8.3828C17.3562 8.0528 17.2962 7.7078 17.2512 7.3628C17.0691 6.30623 16.5157 5.34941 15.6907 4.66465C14.8657 3.9799 13.8233 3.61221 12.7512 3.6278H8.25124C7.60478 3.62173 6.96461 3.75502 6.3743 4.01859C5.78399 4.28217 5.2574 4.66984 4.83038 5.15522C4.40336 5.6406 4.08594 6.21229 3.89972 6.83137C3.7135 7.45045 3.66285 8.10238 3.75124 8.7428C4.55034 15.0269 7.42028 20.8656 11.9077 25.3368C16.3951 29.8079 22.2443 32.6566 28.5312 33.4328H29.1012C30.2074 33.4344 31.2753 33.0286 32.1012 32.2928C32.5758 31.8684 32.9549 31.3481 33.2134 30.7663C33.472 30.1845 33.6042 29.5544 33.6012 28.9178V24.4178C33.5829 23.3759 33.2034 22.3726 32.5277 21.5793C31.852 20.786 30.922 20.2517 29.8962 20.0678ZM30.6462 29.0678C30.646 29.2808 30.6003 29.4913 30.5124 29.6852C30.4245 29.8792 30.2962 30.0522 30.1362 30.1928C29.9691 30.3383 29.7732 30.4469 29.5612 30.5115C29.3493 30.5762 29.1261 30.5953 28.9062 30.5678C23.2886 29.8475 18.0706 27.2775 14.0753 23.2632C10.08 19.2489 7.53485 14.0188 6.84124 8.3978C6.81736 8.17807 6.83828 7.95579 6.90274 7.74438C6.96719 7.53297 7.07384 7.33683 7.21624 7.1678C7.3568 7.00779 7.52983 6.87956 7.7238 6.79162C7.91778 6.70369 8.12826 6.65807 8.34124 6.6578H12.8412C13.1901 6.65003 13.5307 6.76411 13.8045 6.9804C14.0782 7.19669 14.2681 7.50165 14.3412 7.8428C14.4012 8.2528 14.4762 8.6578 14.5662 9.0578C14.7395 9.84851 14.9701 10.6256 15.2562 11.3828L13.1562 12.3578C12.9767 12.4402 12.8152 12.5572 12.681 12.7022C12.5468 12.8472 12.4425 13.0172 12.3742 13.2026C12.3059 13.388 12.2749 13.585 12.283 13.7824C12.2911 13.9798 12.338 14.1736 12.4212 14.3528C14.58 18.9769 18.2971 22.694 22.9212 24.8528C23.2864 25.0028 23.696 25.0028 24.0612 24.8528C24.2483 24.7859 24.4202 24.6825 24.567 24.5486C24.7138 24.4147 24.8325 24.253 24.9162 24.0728L25.8462 21.9728C26.6217 22.2501 27.4131 22.4805 28.2162 22.6628C28.6162 22.7528 29.0212 22.8278 29.4312 22.8878C29.7724 22.961 30.0773 23.1508 30.2936 23.4246C30.5099 23.6984 30.624 24.039 30.6162 24.3878L30.6462 29.0678Z" fill="white"/>
</svg>
