<svg width="146" height="146" viewBox="0 0 146 146" fill="none" xmlns="http://www.w3.org/2000/svg">
<g clip-path="url(#clip0_620_116485)">
<path d="M73 0C32.6835 0 0 32.6835 0 73C0 113.319 32.6835 146 73 146C113.319 146 146 113.319 146 73C146 32.6835 113.319 0 73 0ZM73 137.019C37.7798 137.019 9.125 108.22 9.125 72.9997C9.125 37.7795 37.7798 9.12472 73 9.12472C108.22 9.12472 136.875 37.7796 136.875 72.9997C136.875 108.22 108.22 137.019 73 137.019ZM104.938 68.4375H77.5625V41.0625C77.5625 38.544 75.5185 36.5 73 36.5C70.4815 36.5 68.4375 38.544 68.4375 41.0625V68.4375H41.0625C38.544 68.4375 36.5 70.4815 36.5 73C36.5 75.5185 38.544 77.5625 41.0625 77.5625H68.4375V104.938C68.4375 107.456 70.4815 109.5 73 109.5C75.5185 109.5 77.5625 107.456 77.5625 104.938V77.5625H104.938C107.456 77.5625 109.5 75.5185 109.5 73C109.5 70.4815 107.456 68.4375 104.938 68.4375Z" fill="#091A2B"/>
</g>
<defs>
<clipPath id="clip0_620_116485">
<rect width="146" height="146" fill="white"/>
</clipPath>
</defs>
</svg>
