<svg width="24" height="24" viewBox="0 0 24 24" fill="none" xmlns="http://www.w3.org/2000/svg">
<path d="M20 17V11.452C20 10.918 20 10.651 19.935 10.402C19.8775 10.1819 19.7828 9.9732 19.655 9.78497C19.51 9.57197 19.31 9.39497 18.907 9.04397L14.107 4.84397C13.361 4.19097 12.987 3.86397 12.567 3.73997C12.197 3.62997 11.803 3.62997 11.432 3.73997C11.012 3.86397 10.64 4.18997 9.894 4.84197L5.093 9.04397C4.691 9.39597 4.49 9.57197 4.346 9.78397C4.2178 9.97245 4.12276 10.1815 4.065 10.402C4 10.65 4 10.918 4 11.452V17C4 17.932 4 18.398 4.152 18.765C4.2524 19.0077 4.39963 19.2283 4.58528 19.4141C4.77093 19.5999 4.99137 19.7473 5.234 19.848C5.602 20 6.068 20 7 20C7.932 20 8.398 20 8.766 19.848C9.00863 19.7473 9.22907 19.5999 9.41472 19.4141C9.60037 19.2283 9.7476 19.0077 9.848 18.765C10 18.398 10 17.932 10 17V16C10 15.4695 10.2107 14.9608 10.5858 14.5858C10.9609 14.2107 11.4696 14 12 14C12.5304 14 13.0391 14.2107 13.4142 14.5858C13.7893 14.9608 14 15.4695 14 16V17C14 17.932 14 18.398 14.152 18.765C14.2524 19.0077 14.3996 19.2283 14.5853 19.4141C14.7709 19.5999 14.9914 19.7473 15.234 19.848C15.602 20 16.068 20 17 20C17.932 20 18.398 20 18.766 19.848C19.0086 19.7473 19.2291 19.5999 19.4147 19.4141C19.6004 19.2283 19.7476 19.0077 19.848 18.765C20 18.398 20 17.932 20 17Z" stroke="white" stroke-width="2" stroke-linecap="round" stroke-linejoin="round"/>
</svg>
