<svg width="122" height="122" viewBox="0 0 122 122" fill="none" xmlns="http://www.w3.org/2000/svg">
<path d="M19.5918 102.408C18.6389 103.361 18.6357 104.91 19.6259 105.824C28.9613 114.441 40.7727 119.943 53.419 121.527C66.8736 123.212 80.5063 120.366 92.163 113.439C103.82 106.512 112.836 95.8981 117.788 83.2747C122.739 70.6513 123.343 56.7379 119.505 43.7327C115.667 30.7276 107.604 19.372 96.5922 11.4602C85.5799 3.54833 72.2454 -0.468764 58.6953 0.0435541C45.1452 0.555872 32.152 5.56839 21.7686 14.2892C12.0091 22.486 5.07804 33.5197 1.9177 45.8249C1.58248 47.1301 2.42622 48.429 3.74379 48.7118L4.15251 48.7995C5.47008 49.0823 6.7621 48.2416 7.10228 46.9377C10.0122 35.7838 16.3184 25.7855 25.176 18.3462C34.6576 10.3828 46.5222 5.80562 58.8955 5.3378C71.2687 4.86998 83.4451 8.53817 93.5009 15.7629C103.557 22.9875 110.919 33.3568 114.424 45.2324C117.929 57.1081 117.377 69.813 112.855 81.3401C108.334 92.8671 100.101 102.559 89.4564 108.885C78.8121 115.21 66.3635 117.809 54.0774 116.27C42.5998 114.833 31.8754 109.861 23.3754 102.074C22.3817 101.164 20.8403 101.16 19.8874 102.113L19.5918 102.408Z" fill="#091A2B"/>
<circle cx="61" cy="61" r="50" fill="#D7EBFF"/>
<path d="M81.1673 72.7915V59.1527C81.1673 57.8399 81.1673 57.1836 81.0075 56.5714C80.8661 56.0303 80.6333 55.5174 80.3192 55.0546C79.9627 54.531 79.4711 54.0959 78.4804 53.233L66.6804 42.908C64.8464 41.3027 63.927 40.4989 62.8945 40.194C61.9849 39.9236 61.0164 39.9236 60.1043 40.194C59.0718 40.4989 58.1573 41.3003 56.3234 42.9031L44.5209 53.233C43.5327 54.0984 43.0386 54.531 42.6846 55.0522C42.3694 55.5155 42.1358 56.0294 41.9938 56.5714C41.834 57.1811 41.834 57.8399 41.834 59.1527V72.7915C41.834 75.0827 41.834 76.2283 42.2077 77.1305C42.4545 77.7272 42.8164 78.2694 43.2728 78.7262C43.7292 79.1831 44.2711 79.5455 44.8676 79.7929C45.7722 80.1665 46.9178 80.1665 49.209 80.1665C51.5002 80.1665 52.6457 80.1665 53.5504 79.7929C54.1469 79.5455 54.6888 79.1831 55.1452 78.7262C55.6016 78.2694 55.9635 77.7272 56.2103 77.1305C56.584 76.2283 56.584 75.0827 56.584 72.7915V70.3332C56.584 69.0292 57.102 67.7786 58.024 66.8566C58.9461 65.9345 60.1967 65.4165 61.5007 65.4165C62.8046 65.4165 64.0552 65.9345 64.9773 66.8566C65.8993 67.7786 66.4173 69.0292 66.4173 70.3332V72.7915C66.4173 75.0827 66.4173 76.2283 66.791 77.1305C67.0378 77.7272 67.3997 78.2694 67.8561 78.7262C68.3125 79.1831 68.8544 79.5455 69.4509 79.7929C70.3556 80.1665 71.5012 80.1665 73.7923 80.1665C76.0835 80.1665 77.2291 80.1665 78.1337 79.7929C78.7302 79.5455 79.2721 79.1831 79.7285 78.7262C80.1849 78.2694 80.5468 77.7272 80.7936 77.1305C81.1673 76.2283 81.1673 75.0827 81.1673 72.7915Z" stroke="#091A2B" stroke-width="4.91667" stroke-linecap="round" stroke-linejoin="round"/>
</svg>
