<svg width="71" height="71" viewBox="0 0 71 71" fill="none" xmlns="http://www.w3.org/2000/svg">
<path d="M53.2508 53.25C54.4277 53.25 55.5564 52.7825 56.3886 51.9503C57.2207 51.1181 57.6883 49.9894 57.6883 48.8125V37.9761C57.6883 36.7992 57.2207 35.6705 56.3886 34.8383C55.5564 34.0061 54.4277 33.5386 53.2508 33.5386H47.0915C47.0915 31.9811 47.1847 30.4191 47.3666 28.8615C47.6418 27.2108 48.1033 25.7419 48.7423 24.4595C49.3857 23.1726 50.2111 22.1653 51.2228 21.4287C52.2301 20.6033 53.5126 20.1906 55.0746 20.1906V13.3125C52.5053 13.3125 50.2599 13.8627 48.3296 14.9632C46.4161 16.0526 44.7709 17.5568 43.5149 19.3652C42.2543 21.3591 41.3252 23.544 40.7636 25.8351C40.1978 28.3634 39.9209 30.9478 39.9383 33.5386V48.8125C39.9383 49.9894 40.4058 51.1181 41.238 51.9503C42.0702 52.7825 43.1989 53.25 44.3758 53.25H53.2508ZM26.6258 53.25C27.8027 53.25 28.9314 52.7825 29.7636 51.9503C30.5957 51.1181 31.0633 49.9894 31.0633 48.8125V37.9761C31.0633 36.7992 30.5957 35.6705 29.7636 34.8383C28.9314 34.0061 27.8027 33.5386 26.6258 33.5386H20.4665C20.4665 31.9811 20.5597 30.4191 20.7416 28.8615C21.0168 27.2108 21.4783 25.7419 22.1173 24.4595C22.7607 23.1726 23.5861 22.1653 24.5978 21.4287C25.6051 20.6033 26.8876 20.1906 28.4496 20.1906V13.3125C25.8803 13.3125 23.6349 13.8627 21.7046 14.9632C19.7911 16.0526 18.1459 17.5568 16.8899 19.3652C15.6293 21.3591 14.7002 23.544 14.1386 25.8351C13.5728 28.3634 13.2959 30.9478 13.3133 33.5386V48.8125C13.3133 49.9894 13.7808 51.1181 14.613 51.9503C15.4452 52.7825 16.5739 53.25 17.7508 53.25H26.6258Z" fill="#091A2B"/>
</svg>
