<svg width="72" height="72" viewBox="0 0 72 72" fill="none" xmlns="http://www.w3.org/2000/svg">
<path d="M18.3999 17.9662C17.2231 17.9518 16.0887 18.4054 15.2464 19.2273C14.4041 20.0493 13.9228 21.1722 13.9083 22.349L13.7755 33.1845C13.7611 34.3613 14.2148 35.4957 15.0367 36.338C15.8586 37.1803 16.9815 37.6617 18.1583 37.6761L24.3171 37.7516C24.298 39.309 24.1857 40.8697 23.9847 42.425C23.6893 44.0722 23.2099 45.5353 22.5552 46.8098C21.896 48.0887 21.0584 49.0858 20.0377 49.81C19.0203 50.6229 17.7329 51.0199 16.171 51.0007L16.0868 57.8783C18.6559 57.9098 20.9078 57.3871 22.8515 56.3104C24.7782 55.2446 26.4417 53.7607 27.7198 51.9677C29.0047 49.9895 29.9605 47.8161 30.5501 45.532C31.1469 43.0108 31.4554 40.43 31.4698 37.8392L31.657 22.5665C31.6714 21.3897 31.2178 20.2553 30.3958 19.413C29.5739 18.5707 28.451 18.0894 27.2742 18.0749L18.3999 17.9662ZM45.0229 18.2925C43.8461 18.2781 42.7117 18.7317 41.8694 19.5536C41.0271 20.3756 40.5458 21.4985 40.5313 22.6753L40.3985 33.5108C40.3841 34.6876 40.8378 35.822 41.6597 36.6643C42.4816 37.5066 43.6045 37.9879 44.7813 38.0024L50.9401 38.0779C50.921 39.6353 50.8087 41.196 50.6077 42.7513C50.3123 44.3985 49.8329 45.8616 49.1782 47.1361C48.519 48.415 47.6814 49.4121 46.6607 50.1363C45.6433 50.9492 44.3559 51.3462 42.7941 51.327L42.7098 58.2046C45.2789 58.2361 47.5308 57.7134 49.4745 56.6367C51.4012 55.5709 53.0647 54.087 54.3428 52.294C55.6277 50.3158 56.5835 48.1424 57.1731 45.8583C57.7699 43.3371 58.0784 40.7563 58.0928 38.1655L58.28 22.8928C58.2944 21.716 57.8408 20.5816 57.0188 19.7393C56.1969 18.897 55.074 18.4157 53.8972 18.4012L45.0229 18.2925Z" fill="#091A2B"/>
</svg>
