<svg width="71" height="17" viewBox="0 0 71 17" fill="none" xmlns="http://www.w3.org/2000/svg">
<path d="M8.90003 12.089L11.805 13.846C12.337 14.168 12.988 13.692 12.848 13.09L12.078 9.78598L14.647 7.55998C15.116 7.15398 14.864 6.38398 14.248 6.33498L10.867 6.04798L9.54403 2.92598C9.30603 2.35898 8.49403 2.35898 8.25603 2.92598L6.93303 6.04098L3.55203 6.32798C2.93603 6.37698 2.68403 7.14698 3.15303 7.55298L5.72203 9.77898L4.95203 13.083C4.81203 13.685 5.46303 14.161 5.99503 13.839L8.90003 12.089Z" fill="#EEDA27"/>
<path d="M22.2028 12.089L25.1078 13.846C25.6398 14.168 26.2908 13.692 26.1508 13.09L25.3808 9.78598L27.9498 7.55998C28.4188 7.15398 28.1668 6.38398 27.5508 6.33498L24.1698 6.04798L22.8468 2.92598C22.6088 2.35898 21.7968 2.35898 21.5588 2.92598L20.2358 6.04098L16.8548 6.32798C16.2388 6.37698 15.9868 7.14698 16.4558 7.55298L19.0248 9.77898L18.2548 13.083C18.1148 13.685 18.7658 14.161 19.2978 13.839L22.2028 12.089Z" fill="#EEDA27"/>
<path d="M35.4996 12.089L38.4046 13.846C38.9366 14.168 39.5876 13.692 39.4476 13.09L38.6776 9.78598L41.2466 7.55998C41.7156 7.15398 41.4636 6.38398 40.8476 6.33498L37.4666 6.04798L36.1436 2.92598C35.9056 2.35898 35.0936 2.35898 34.8556 2.92598L33.5326 6.04098L30.1516 6.32798C29.5356 6.37698 29.2836 7.14698 29.7526 7.55298L32.3216 9.77898L31.5516 13.083C31.4116 13.685 32.0626 14.161 32.5946 13.839L35.4996 12.089Z" fill="#EEDA27"/>
<path d="M48.8004 12.089L51.7054 13.846C52.2374 14.168 52.8884 13.692 52.7484 13.09L51.9784 9.78598L54.5474 7.55998C55.0164 7.15398 54.7644 6.38398 54.1484 6.33498L50.7674 6.04798L49.4444 2.92598C49.2064 2.35898 48.3944 2.35898 48.1564 2.92598L46.8334 6.04098L43.4524 6.32798C42.8364 6.37698 42.5844 7.14698 43.0534 7.55298L45.6224 9.77898L44.8524 13.083C44.7124 13.685 45.3634 14.161 45.8954 13.839L48.8004 12.089Z" fill="#EEDA27"/>
<path d="M67.4542 6.3279L64.0662 6.0339L62.7432 2.9189C62.5052 2.3519 61.6932 2.3519 61.4552 2.9189L60.1322 6.0409L56.7512 6.3279C56.1352 6.3769 55.8832 7.1469 56.3522 7.5529L58.9212 9.7789L58.1512 13.0829C58.0112 13.6849 58.6622 14.1609 59.1942 13.8389L62.0992 12.0889L65.0042 13.8459C65.5362 14.1679 66.1872 13.6919 66.0472 13.0899L65.2772 9.7789L67.8462 7.5529C68.3152 7.1469 68.0702 6.3769 67.4542 6.3279ZM62.0992 10.7799V4.2699L63.2962 7.0979L66.3622 7.3639L64.0382 9.3799L64.7382 12.3759L62.0992 10.7799Z" fill="#EEDA27"/>
</svg>
