<svg width="6" height="10" viewBox="0 0 6 10" fill="none" xmlns="http://www.w3.org/2000/svg">
<path fill-rule="evenodd" clip-rule="evenodd" d="M0.238709 0.219357C0.379334 0.078907 0.569958 1.81198e-05 0.768709 1.81198e-05C0.967459 1.81198e-05 1.15808 0.078907 1.29871 0.219357L5.29871 4.21936C5.43916 4.35998 5.51805 4.55061 5.51805 4.74936C5.51805 4.94811 5.43916 5.13873 5.29871 5.27936L1.29871 9.27936C1.23005 9.35305 1.14725 9.41215 1.05525 9.45314C0.963247 9.49413 0.863934 9.51617 0.763231 9.51795C0.662528 9.51973 0.562499 9.5012 0.469111 9.46348C0.375723 9.42576 0.290889 9.36962 0.219671 9.2984C0.148452 9.22718 0.0923068 9.14234 0.0545858 9.04896C0.0168648 8.95557 -0.00166006 8.85554 0.00011672 8.75484C0.0018935 8.65413 0.0239355 8.55482 0.0649275 8.46282C0.105919 8.37082 0.165022 8.28802 0.238709 8.21936L3.70871 4.74936L0.238709 1.27936C0.0982584 1.13873 0.0193685 0.948109 0.0193685 0.749358C0.0193685 0.550608 0.0982584 0.359983 0.238709 0.219357Z" fill="#091A2B"/>
</svg>
