<svg width="18" height="17" viewBox="0 0 18 17" fill="none" xmlns="http://www.w3.org/2000/svg">
<path d="M0.8125 17V15.1111H2.70139V0H12.1458V0.944444H15.9236V15.1111H17.8125V17H14.0347V2.83333H12.1458V17H0.8125ZM8.36806 9.44444C8.63565 9.44444 8.86011 9.35378 9.04144 9.17244C9.22278 8.99111 9.31313 8.76696 9.3125 8.5C9.3125 8.23241 9.22183 8.00794 9.0405 7.82661C8.85917 7.64528 8.63502 7.55493 8.36806 7.55556C8.10046 7.55556 7.876 7.64622 7.69467 7.82756C7.51333 8.00889 7.42298 8.23304 7.42361 8.5C7.42361 8.76759 7.51428 8.99206 7.69561 9.17339C7.87694 9.35472 8.10109 9.44507 8.36806 9.44444Z" fill="#33C2E2"/>
</svg>
