<svg width="31" height="31" viewBox="0 0 31 31" fill="none" xmlns="http://www.w3.org/2000/svg">
<path d="M25.3167 26.8422L17.3206 18.8461L17.194 18.7195L17.0542 18.8313C16.4269 19.3332 15.7039 19.7318 14.8835 20.0263C14.0669 20.3195 13.1965 20.4667 12.2708 20.4667C9.97613 20.4667 8.04166 19.674 6.45513 18.0866C4.86854 16.4992 4.07586 14.5647 4.075 12.2708L25.3167 26.8422ZM25.3167 26.8422L26.8422 25.3167L18.8461 17.3206L18.7195 17.194L18.8313 17.0542C19.3332 16.4269 19.7318 15.7039 20.0263 14.8835C20.3195 14.0669 20.4667 13.1965 20.4667 12.2709L25.3167 26.8422ZM6.45505 6.45513C4.86769 8.04165 4.07502 9.97608 4.075 12.2708L6.45505 6.45513ZM6.45505 6.45513C8.04247 4.86854 9.97698 4.07586 12.2708 4.075L6.45505 6.45513ZM12.2709 4.075C14.5656 4.07502 16.5 4.86769 18.0865 6.45505C19.6731 8.04247 20.4658 9.97698 20.4667 12.2708L12.2709 4.075ZM12.2709 18.2833C13.9379 18.2833 15.3616 17.6973 16.5301 16.5288L8.15429 16.3887C9.28493 17.5193 10.6571 18.0842 12.2708 18.0833V18.2833C12.2709 18.2833 12.2709 18.2833 12.2709 18.2833ZM16.5288 8.01158C15.3602 6.84302 13.937 6.25744 12.2707 6.25833L18.0833 12.2708H18.2833C18.2833 12.2708 18.2833 12.2708 18.2833 12.2707C18.2833 10.6037 17.6973 9.18011 16.5288 8.01158Z" fill="#091A2B" stroke="#CDFF7A" stroke-width="0.4"/>
</svg>
