<svg width="24" height="24" viewBox="0 0 24 24" fill="none" xmlns="http://www.w3.org/2000/svg">
<path d="M20.3501 8.9231L19.9841 8.7191C19.662 8.55322 19.391 8.30298 19.2001 7.9951C19.1831 7.9681 19.1671 7.9391 19.1351 7.8831C18.9196 7.53697 18.8149 7.13331 18.8351 6.7261L18.8411 6.3011C18.8531 5.6211 18.8591 5.2791 18.7631 4.9731C18.6782 4.70081 18.536 4.44985 18.3461 4.2371C18.1321 3.9971 17.8351 3.8251 17.2401 3.4831L16.7461 3.1981C16.1541 2.8571 15.8571 2.6861 15.5421 2.6211C15.2638 2.56348 14.9764 2.56586 14.6991 2.6281C14.3861 2.6981 14.0931 2.8741 13.5081 3.2241L13.5051 3.2261L13.1511 3.4371C13.0951 3.4711 13.0661 3.4871 13.0381 3.5031C12.7601 3.6581 12.4501 3.7431 12.1311 3.7531C12.0991 3.7551 12.0661 3.7551 12.0011 3.7551L11.8711 3.7541C11.552 3.74405 11.2399 3.65763 10.9611 3.5021C10.9331 3.4871 10.9061 3.4701 10.8501 3.4361L10.4931 3.2221C9.90408 2.8681 9.60908 2.6921 9.29408 2.6211C9.01574 2.55873 8.72727 2.55668 8.44808 2.6151C8.13208 2.6811 7.83608 2.8531 7.24308 3.1971L7.24008 3.1981L6.75208 3.4811L6.74708 3.4851C6.15908 3.8251 5.86408 3.9971 5.65208 4.2361C5.46316 4.44849 5.32168 4.69872 5.23708 4.9701C5.14208 5.2771 5.14708 5.6191 5.15908 6.3031L5.16608 6.7271C5.16608 6.7921 5.16908 6.8241 5.16808 6.8551C5.1628 7.2184 5.05875 7.57342 4.86708 7.8821C4.83408 7.9381 4.81908 7.9661 4.80208 7.9921C4.63347 8.26427 4.40198 8.49198 4.12708 8.6561L4.01508 8.7191L3.65408 8.9191C3.05208 9.2521 2.75108 9.4191 2.53308 9.6571C2.33926 9.86693 2.19264 10.1158 2.10308 10.3871C2.00308 10.6941 2.00308 11.0371 2.00408 11.7251L2.00608 12.2881C2.00708 12.9711 2.00908 13.3121 2.11008 13.6171C2.19926 13.8867 2.34483 14.1341 2.53708 14.3431C2.75508 14.5791 3.05308 14.7451 3.65008 15.0771L4.00808 15.2761C4.06908 15.3101 4.10008 15.3261 4.12908 15.3441C4.44245 15.5319 4.69838 15.8021 4.86908 16.1251L4.93608 16.2451C5.10499 16.564 5.18447 16.9227 5.16608 17.2831L5.15908 17.6901C5.14708 18.3761 5.14208 18.7201 5.23808 19.0271C5.32308 19.2991 5.46508 19.5501 5.65508 19.7631C5.86908 20.0031 6.16708 20.1741 6.76108 20.5171L7.25508 20.8021C7.84808 21.1431 8.14408 21.3141 8.45908 21.3791C8.73738 21.4367 9.02477 21.4343 9.30208 21.3721C9.61608 21.3021 9.90908 21.1261 10.4961 20.7741L10.8501 20.5621C11.155 20.3658 11.5076 20.2562 11.8701 20.2451H12.1301C12.4481 20.2551 12.7601 20.3421 13.0401 20.4971L13.1321 20.5521L13.5081 20.7781C14.0981 21.1321 14.3921 21.3081 14.7071 21.3781C14.9853 21.4411 15.2737 21.4438 15.5531 21.3861C15.8681 21.3201 16.1661 21.1471 16.7591 20.8031L17.2541 20.5161C17.8421 20.1741 18.1371 20.0031 18.3491 19.7641C18.5391 19.5511 18.6791 19.3011 18.7641 19.0301C18.8591 18.7251 18.8541 18.3861 18.8421 17.7121L18.8341 17.2721C18.8142 16.8655 18.9189 16.4626 19.1341 16.1171L19.1991 16.0071C19.3677 15.7349 19.5992 15.5072 19.8741 15.3431L19.9841 15.2821L19.9861 15.2811L20.3471 15.0811C20.9491 14.7471 21.2501 14.5811 21.4691 14.3431C21.6631 14.1331 21.8091 13.8831 21.8981 13.6131C21.9981 13.3081 21.9981 12.9661 21.9961 12.2861L21.9941 11.7121C21.9931 11.0291 21.9921 10.6871 21.8911 10.3821C21.8014 10.1128 21.6555 9.86569 21.4631 9.6571C21.2461 9.4211 20.9481 9.2551 20.3521 8.9241L20.3501 8.9231Z" stroke="white" stroke-width="2" stroke-linecap="round" stroke-linejoin="round"/>
<path d="M8 12C8 13.0609 8.42143 14.0783 9.17157 14.8284C9.92172 15.5786 10.9391 16 12 16C13.0609 16 14.0783 15.5786 14.8284 14.8284C15.5786 14.0783 16 13.0609 16 12C16 10.9391 15.5786 9.92172 14.8284 9.17157C14.0783 8.42143 13.0609 8 12 8C10.9391 8 9.92172 8.42143 9.17157 9.17157C8.42143 9.92172 8 10.9391 8 12Z" stroke="white" stroke-width="2" stroke-linecap="round" stroke-linejoin="round"/>
</svg>
