<svg width="121" height="35" viewBox="0 0 121 35" fill="none" xmlns="http://www.w3.org/2000/svg">
<path d="M24.2431 20.551C15.4917 18.3632 2 28.2085 2 28.2085V15.4461L16.221 2.68359L31.9006 15.4461V25.2914C31.9006 25.2914 22.0992 24.6178 16.221 26.3853C10.7901 28.0183 7.78654 29.6488 3.45857 33.3135" stroke="#091A2B" stroke-width="2.91713" stroke-linecap="round"/>
<path d="M6.55469 11.0724V3.40625" stroke="#091A2B" stroke-width="2.91713" stroke-linecap="round"/>
<path d="M58.7633 10.9389C58.7481 11.0234 58.6966 11.0969 58.6223 11.1399L55.6887 12.8383C55.5409 12.9239 55.3518 12.8643 55.2759 12.7112C54.6159 11.3803 53.8742 10.4887 51.8841 10.4887C49.3754 10.4887 48.5003 11.8305 48.5003 13.0849C48.5003 17.5481 59.9354 14.8644 59.9354 22.4781C59.9354 26.1537 57.2517 29.5084 51.8841 29.5084C47.6265 29.5084 45.3039 27.7369 43.7309 25.195C43.6422 25.0517 43.6977 24.8643 43.8482 24.7886L47.4113 22.9944C47.5597 22.9197 47.74 22.9842 47.8119 23.1339C48.5786 24.7324 49.5651 25.8036 51.8841 25.8036C54.4804 25.8036 55.3847 24.4617 55.3847 23.149C55.3847 18.4816 43.9495 21.2821 43.9495 13.8142C43.9495 10.3136 46.4583 6.7839 51.8841 6.7839C55.3499 6.7839 57.3814 7.99321 58.8622 9.83195C58.9143 9.89674 58.9352 9.98124 58.9205 10.0631L58.7633 10.9389Z" fill="#091A2B"/>
<path d="M76.1751 19.1664C76.1752 19.1956 76.1708 19.2251 76.1622 19.253L75.3566 21.8576C75.3223 21.9686 75.2253 22.0487 75.1097 22.0613L66.0641 23.0511C65.8786 23.0714 65.7593 23.2587 65.8304 23.4311C66.397 24.8049 67.4629 25.8036 69.0282 25.8036C70.6049 25.8036 71.7763 25.1703 72.4951 24.2342C72.5849 24.1172 72.7445 24.0741 72.8762 24.1405L75.8848 25.6572C76.0398 25.7354 76.093 25.9311 75.9932 26.0731C74.5765 28.0898 72.2999 29.5084 69.0866 29.5084C63.4857 29.5084 60.6269 25.2202 60.6269 20.9028C60.6269 16.6146 63.4857 12.2973 68.8824 12.2973C73.0684 12.2973 76.1536 14.9334 76.1751 19.1664ZM65.6283 18.9596C65.5732 19.1524 65.7354 19.3329 65.9346 19.3099L71.0597 18.7206C71.2245 18.7016 71.3414 18.5488 71.3039 18.3871C70.9592 16.9016 69.8812 16.002 68.649 16.002C67.1618 16.002 66.1007 17.3054 65.6283 18.9596Z" fill="#091A2B"/>
<path d="M87.3879 28.1118C87.4637 28.242 87.4283 28.4091 87.3024 28.4918C86.3307 29.1305 85.2077 29.5084 83.9336 29.5084C81.1624 29.5084 78.3911 27.7289 78.3911 24.2575V16.5855C78.3911 16.4244 78.2605 16.2938 78.0994 16.2938H77.6035C77.4424 16.2938 77.3117 16.1632 77.3117 16.002V12.8807C77.3117 12.7196 77.4424 12.589 77.6035 12.589H78.0994C78.2605 12.589 78.3911 12.4584 78.3911 12.2973V8.53418C78.3911 8.37307 78.5217 8.24247 78.6828 8.24247H82.7376C82.8987 8.24247 83.0293 8.37307 83.0293 8.53418V12.2973C83.0293 12.4584 83.1599 12.589 83.321 12.589H87.81V16.2938H83.321C83.1599 16.2938 83.0293 16.4244 83.0293 16.5855V24.5492C83.0293 25.3952 83.6419 25.8036 84.2254 25.8036C84.622 25.8036 84.9687 25.6371 85.2781 25.3293C85.4277 25.1805 85.6868 25.1921 85.7931 25.3745L87.3879 28.1118Z" fill="#091A2B"/>
<path d="M97.8861 28.1118C97.962 28.242 97.9266 28.4091 97.8007 28.4918C96.8289 29.1305 95.706 29.5084 94.4319 29.5084C91.6606 29.5084 88.8893 27.7289 88.8893 24.2575V16.5855C88.8893 16.4244 88.7587 16.2938 88.5976 16.2938H87.81V12.589H88.5976C88.7587 12.589 88.8893 12.4584 88.8893 12.2973V8.53418C88.8893 8.37307 89.0199 8.24247 89.1811 8.24247H93.2359C93.397 8.24247 93.5276 8.37307 93.5276 8.53418V12.2973C93.5276 12.4584 93.6582 12.589 93.8193 12.589H97.5979C97.8019 12.589 97.9429 12.793 97.8707 12.9838L96.691 16.1052C96.6481 16.2187 96.5395 16.2938 96.4181 16.2938H93.8193C93.6582 16.2938 93.5276 16.4244 93.5276 16.5855V24.5492C93.5276 25.3952 94.1402 25.8036 94.7236 25.8036C95.1203 25.8036 95.467 25.6371 95.7764 25.3293C95.926 25.1805 96.1851 25.1921 96.2913 25.3745L97.8861 28.1118Z" fill="#091A2B"/>
<path d="M98.9209 6.7839C98.9209 6.62279 99.0515 6.49219 99.2126 6.49219H103.267C103.429 6.49219 103.559 6.62279 103.559 6.7839V28.9249C103.559 29.0861 103.429 29.2167 103.267 29.2167H99.2126C99.0515 29.2167 98.9209 29.0861 98.9209 28.9249V6.7839Z" fill="#091A2B"/>
<path d="M120.533 19.1664C120.533 19.1956 120.528 19.2251 120.52 19.253L119.714 21.8576C119.68 21.9686 119.583 22.0487 119.467 22.0613L110.422 23.0511C110.236 23.0714 110.117 23.2587 110.188 23.4311C110.755 24.8049 111.82 25.8036 113.386 25.8036C114.962 25.8036 116.134 25.1703 116.853 24.2342C116.942 24.1172 117.102 24.0741 117.234 24.1405L120.242 25.6572C120.397 25.7354 120.451 25.9311 120.351 26.0731C118.934 28.0898 116.657 29.5084 113.444 29.5084C107.843 29.5084 104.984 25.2202 104.984 20.9028C104.984 16.6146 107.843 12.2973 113.24 12.2973C117.426 12.2973 120.511 14.9334 120.533 19.1664ZM109.986 18.9596C109.931 19.1524 110.093 19.3329 110.292 19.3099L115.417 18.7206C115.582 18.7016 115.699 18.5488 115.661 18.3871C115.317 16.9016 114.239 16.002 113.007 16.002C111.519 16.002 110.458 17.3054 109.986 18.9596Z" fill="#091A2B"/>
</svg>
