<svg width="137" height="42" viewBox="0 0 137 42" fill="none" xmlns="http://www.w3.org/2000/svg">
<path d="M26.7389 8.31817C26.712 8.46779 26.6207 8.598 26.4891 8.67416L21.2915 11.6833C21.0295 11.835 20.6945 11.7295 20.56 11.4582C19.3906 9.10013 18.0764 7.52037 14.5506 7.52037C10.1056 7.52037 8.55509 9.89789 8.55509 12.1203C8.55509 20.0282 28.8156 15.2731 28.8156 28.7629C28.8156 35.2753 24.0606 41.2191 14.5506 41.2191C7.00705 41.2191 2.8919 38.0804 0.104848 33.5767C-0.0522369 33.3228 0.0459976 32.9909 0.312617 32.8566L6.62569 29.6777C6.88854 29.5453 7.20811 29.6596 7.33539 29.925C8.69387 32.7571 10.4418 34.655 14.5506 34.655C19.1505 34.655 20.7528 32.2775 20.7528 29.9517C20.7528 21.6821 0.492219 26.6439 0.492219 13.4125C0.492219 7.21026 4.93714 0.956365 14.5506 0.956365C20.6911 0.956365 24.2904 3.099 26.9141 6.35682C27.0065 6.47162 27.0435 6.62133 27.0174 6.76642L26.7389 8.31817Z" fill="#091A2B"/>
<path d="M57.5887 22.8953C57.589 22.9471 57.5811 22.9994 57.5658 23.0488L56.1386 27.6635C56.0777 27.8603 55.9058 28.0022 55.701 28.0246L39.6743 29.7783C39.3456 29.8142 39.1342 30.1459 39.2602 30.4516C40.2641 32.8856 42.1527 34.655 44.9261 34.655C47.7196 34.655 49.795 33.533 51.0686 31.8744C51.2277 31.6671 51.5104 31.5907 51.7438 31.7083L57.0744 34.3957C57.3491 34.5341 57.4433 34.8809 57.2665 35.1326C54.7564 38.7057 50.7228 41.2191 45.0294 41.2191C35.1059 41.2191 30.0407 33.6213 30.0407 25.972C30.0407 18.3742 35.1059 10.7248 44.6676 10.7248C52.0843 10.7248 57.5506 15.3954 57.5887 22.8953ZM38.9021 22.5289C38.8046 22.8705 39.0919 23.1903 39.4449 23.1497L48.5253 22.1055C48.8174 22.0719 49.0245 21.8011 48.958 21.5147C48.3472 18.8827 46.4373 17.2889 44.2541 17.2889C41.6191 17.2889 39.7391 19.5981 38.9021 22.5289Z" fill="#091A2B"/>
<path d="M77.4553 38.7447C77.5896 38.9753 77.5269 39.2714 77.3039 39.418C75.5821 40.5496 73.5925 41.2191 71.3351 41.2191C66.425 41.2191 61.5149 38.0663 61.5149 31.9157V18.3226C61.5149 18.0371 61.2835 17.8057 60.9981 17.8057H60.1195C59.834 17.8057 59.6026 17.5743 59.6026 17.2889V11.7585C59.6026 11.4731 59.834 11.2417 60.1195 11.2417H60.9981C61.2835 11.2417 61.5149 11.0103 61.5149 10.7248V4.05747C61.5149 3.77202 61.7463 3.54062 62.0318 3.54062H69.216C69.5015 3.54062 69.7329 3.77202 69.7329 4.05747V10.7248C69.7329 11.0103 69.9643 11.2417 70.2497 11.2417H78.2032V17.8057H70.2497C69.9643 17.8057 69.7329 18.0371 69.7329 18.3226V32.4326C69.7329 33.9315 70.8183 34.655 71.852 34.655C72.5548 34.655 73.1691 34.3601 73.7172 33.8147C73.9823 33.551 74.4414 33.5716 74.6296 33.8947L77.4553 38.7447Z" fill="#091A2B"/>
<path d="M96.0558 38.7447C96.1902 38.9753 96.1275 39.2714 95.9045 39.418C94.1827 40.5496 92.1931 41.2191 89.9357 41.2191C85.0256 41.2191 80.1155 38.0663 80.1155 31.9157V18.3226C80.1155 18.0371 79.8841 17.8057 79.5987 17.8057H78.2032V11.2417H79.5987C79.8841 11.2417 80.1155 11.0103 80.1155 10.7248V4.05747C80.1155 3.77202 80.3469 3.54062 80.6324 3.54062H87.8166C88.1021 3.54062 88.3335 3.77202 88.3335 4.05747V10.7248C88.3335 11.0103 88.5649 11.2417 88.8503 11.2417H95.5451C95.9065 11.2417 96.1563 11.6032 96.0285 11.9413L93.9384 17.4716C93.8624 17.6727 93.6698 17.8057 93.4549 17.8057H88.8503C88.5649 17.8057 88.3335 18.0371 88.3335 18.3226V32.4326C88.3335 33.9315 89.4188 34.655 90.4525 34.655C91.1554 34.655 91.7697 34.3601 92.3178 33.8147C92.5829 33.551 93.042 33.5716 93.2302 33.8947L96.0558 38.7447Z" fill="#091A2B"/>
<path d="M97.8891 0.956364C97.8891 0.670915 98.1205 0.439514 98.406 0.439514H105.59C105.876 0.439514 106.107 0.670916 106.107 0.956365V40.1854C106.107 40.4708 105.876 40.7022 105.59 40.7022H98.406C98.1205 40.7022 97.8891 40.4708 97.8891 40.1854V0.956364Z" fill="#091A2B"/>
<path d="M136.18 22.8953C136.181 22.9471 136.173 22.9994 136.157 23.0488L134.73 27.6635C134.669 27.8603 134.497 28.0022 134.293 28.0246L118.266 29.7783C117.937 29.8142 117.726 30.1459 117.852 30.4516C118.856 32.8856 120.744 34.655 123.518 34.655C126.311 34.655 128.387 33.533 129.66 31.8744C129.819 31.6671 130.102 31.5907 130.335 31.7083L135.666 34.3957C135.941 34.5341 136.035 34.8809 135.858 35.1326C133.348 38.7057 129.314 41.2191 123.621 41.2191C113.698 41.2191 108.632 33.6213 108.632 25.972C108.632 18.3742 113.698 10.7248 123.259 10.7248C130.676 10.7248 136.142 15.3954 136.18 22.8953ZM117.494 22.5289C117.396 22.8705 117.684 23.1903 118.037 23.1497L127.117 22.1055C127.409 22.0719 127.616 21.8011 127.55 21.5147C126.939 18.8827 125.029 17.2889 122.846 17.2889C120.211 17.2889 118.331 19.5981 117.494 22.5289Z" fill="#091A2B"/>
</svg>
