<svg width="22" height="18" viewBox="0 0 22 18" fill="none" xmlns="http://www.w3.org/2000/svg">
<path d="M4.70147 17.1136C4.43209 17.1136 4.20612 17.0224 4.02358 16.8398C3.84103 16.6573 3.75008 16.4316 3.75071 16.1629V15.2121C2.95841 15.2121 2.28496 14.9348 1.73035 14.3802C1.17574 13.8256 0.898438 13.1521 0.898438 12.3598V7.60606C0.898438 7.08314 1.08479 6.63534 1.45748 6.26264C1.83018 5.88994 2.27767 5.70391 2.79995 5.70455C3.32287 5.70455 3.77068 5.89089 4.14337 6.26359C4.51607 6.63629 4.7021 7.08378 4.70147 7.60606V11.4091H18.0121V7.60606C18.0121 7.08314 18.1984 6.63534 18.5711 6.26264C18.9438 5.88994 19.3913 5.70391 19.9136 5.70455C20.4365 5.70455 20.8843 5.89089 21.257 6.26359C21.6297 6.63629 21.8157 7.08378 21.8151 7.60606V12.3598C21.8151 13.1521 21.5378 13.8256 20.9832 14.3802C20.4286 14.9348 19.7551 15.2121 18.9628 15.2121V16.1629C18.9628 16.4323 18.8716 16.6582 18.689 16.8408C18.5065 17.0233 18.2808 17.1143 18.0121 17.1136C17.7427 17.1136 17.5167 17.0224 17.3342 16.8398C17.1516 16.6573 17.0607 16.4316 17.0613 16.1629V15.2121H5.65223V16.1629C5.65223 16.4323 5.56095 16.6582 5.37841 16.8408C5.19586 17.0233 4.97022 17.1143 4.70147 17.1136ZM6.60298 9.50758V7.60606C6.60298 6.73453 6.3374 5.95396 5.80625 5.26434C5.27509 4.57473 4.58991 4.08762 3.75071 3.80303V2.85227C3.75071 2.05997 4.02801 1.38652 4.58262 0.831913C5.13723 0.277304 5.81069 0 6.60298 0H16.1106C16.9029 0 17.5763 0.277304 18.1309 0.831913C18.6855 1.38652 18.9628 2.05997 18.9628 2.85227V3.80303C18.1071 4.02487 17.4179 4.48853 16.8949 5.19399C16.372 5.89945 16.1106 6.70347 16.1106 7.60606V9.50758H6.60298Z" fill="#97CA44"/>
</svg>
