<svg width="37" height="37" viewBox="0 0 37 37" fill="none" xmlns="http://www.w3.org/2000/svg">
<path d="M18.3672 3.06775C10.0962 3.06775 3.36719 9.79675 3.36719 18.0677V24.2822C3.36719 25.8182 4.71269 27.0677 6.36719 27.0677H7.86719C8.26501 27.0677 8.64654 26.9097 8.92785 26.6284C9.20915 26.3471 9.36719 25.9656 9.36719 25.5677V17.8532C9.36719 17.4554 9.20915 17.0739 8.92785 16.7926C8.64654 16.5113 8.26501 16.3532 7.86719 16.3532H6.50519C7.33919 10.5482 12.3342 6.06775 18.3672 6.06775C24.4002 6.06775 29.3952 10.5482 30.2292 16.3532H28.8672C28.4694 16.3532 28.0878 16.5113 27.8065 16.7926C27.5252 17.0739 27.3672 17.4554 27.3672 17.8532V27.0677C27.3672 28.7222 26.0217 30.0677 24.3672 30.0677H21.3672V28.5677H15.3672V33.0677H24.3672C27.6762 33.0677 30.3672 30.3767 30.3672 27.0677C32.0217 27.0677 33.3672 25.8182 33.3672 24.2822V18.0677C33.3672 9.79675 26.6382 3.06775 18.3672 3.06775Z" fill="white"/>
</svg>
