<svg width="55" height="48" viewBox="0 0 55 48" fill="none" xmlns="http://www.w3.org/2000/svg">
<g clip-path="url(#clip0_659_136847)">
<path d="M36.2874 12.7346L36.2855 12.7314C34.0473 8.88456 30.1259 6.60716 25.7494 6.60716C18.9942 6.60716 13.4994 12.1019 13.4994 18.8572C13.4994 19.6791 12.8571 20.3214 12.0352 20.3214H10.3209C6.41137 20.3214 3.21373 23.5191 3.21373 27.4286C3.21373 31.3381 6.41137 34.5357 10.3209 34.5357C11.1428 34.5357 11.7852 35.1781 11.7852 36C11.7852 36.8219 11.1428 37.4643 10.3209 37.4643C4.8018 37.4643 0.285156 32.9477 0.285156 27.4286C0.285156 21.9095 4.8018 17.3929 10.3209 17.3929H10.4237H10.6475L10.6722 17.1705C11.5154 9.58127 17.9584 3.67859 25.7494 3.67859C30.7731 3.67859 35.4958 6.24145 38.296 10.4248L38.3702 10.5357H38.5037H41.178C48.6171 10.5357 54.6423 16.5609 54.6423 24C54.6423 31.4391 48.6171 37.4643 41.178 37.4643H41.1437C40.3218 37.4643 39.6794 36.8219 39.6794 36C39.6794 35.1781 40.3218 34.5357 41.1437 34.5357C46.9389 34.5357 51.6794 29.7952 51.6794 24C51.6794 18.2048 46.9389 13.4643 41.1437 13.4643H37.5437C37.0144 13.4643 36.5504 13.2023 36.2874 12.7346Z" fill="#ADADAD" stroke="white" stroke-width="0.5"/>
<path d="M34.2879 31.4643L34.2849 31.4644C34.0949 31.4667 33.9066 31.4292 33.732 31.3544C33.5574 31.2796 33.4004 31.169 33.271 31.0299L33.2712 31.0297L33.2647 31.0233L25.8933 23.6518L25.7165 23.4751L25.5397 23.6518L18.1683 31.0233C17.5802 31.6114 16.6756 31.6114 16.0875 31.0233C15.4995 30.4352 15.4995 29.5306 16.0875 28.9425L24.659 20.3711C25.2471 19.783 26.1516 19.783 26.7397 20.3711L35.3111 28.9425C35.8992 29.5306 35.8992 30.4352 35.3111 31.0233C35.0146 31.3198 34.6323 31.4643 34.2879 31.4643Z" fill="#ADADAD" stroke="white" stroke-width="0.5"/>
<path d="M25.7143 44.3214C24.8924 44.3214 24.25 43.6791 24.25 42.8571V22.2857C24.25 21.4638 24.8924 20.8214 25.7143 20.8214C26.5362 20.8214 27.1786 21.4638 27.1786 22.2857V42.8571C27.1786 43.6791 26.5362 44.3214 25.7143 44.3214Z" fill="#ADADAD" stroke="white" stroke-width="0.5"/>
</g>
<defs>
<clipPath id="clip0_659_136847">
<rect width="54.8592" height="48" fill="white"/>
</clipPath>
</defs>
</svg>
