<svg width="31" height="31" viewBox="0 0 31 31" fill="none" xmlns="http://www.w3.org/2000/svg">
<path d="M15.5679 2.89453C13.0884 2.89453 10.6645 3.62979 8.6029 5.00733C6.54126 6.38487 4.93441 8.34282 3.98555 10.6336C3.03668 12.9243 2.78842 15.445 3.27214 17.8769C3.75587 20.3088 4.94987 22.5426 6.70314 24.2959C8.45642 26.0491 10.6902 27.2431 13.1221 27.7269C15.554 28.2106 18.0746 27.9623 20.3654 27.0134C22.6562 26.0646 24.6141 24.4577 25.9917 22.3961C27.3692 20.3345 28.1045 17.9106 28.1045 15.4311C28.101 12.1073 26.779 8.9206 24.4287 6.57029C22.0784 4.21999 18.8917 2.89804 15.5679 2.89453ZM9.06811 23.809C9.76574 22.7179 10.7268 21.82 11.8627 21.198C12.9986 20.5761 14.2728 20.2501 15.5679 20.2501C16.8629 20.2501 18.1371 20.5761 19.273 21.198C20.4089 21.82 21.37 22.7179 22.0676 23.809C20.2092 25.2543 17.9221 26.039 15.5679 26.039C13.2136 26.039 10.9265 25.2543 9.06811 23.809ZM11.7104 14.4668C11.7104 13.7039 11.9367 12.9581 12.3605 12.3237C12.7844 11.6894 13.3868 11.195 14.0917 10.903C14.7965 10.611 15.5721 10.5346 16.3204 10.6835C17.0687 10.8323 17.756 11.1997 18.2955 11.7392C18.8349 12.2786 19.2023 12.966 19.3512 13.7142C19.5 14.4625 19.4236 15.2381 19.1316 15.943C18.8397 16.6478 18.3453 17.2502 17.7109 17.6741C17.0766 18.098 16.3308 18.3242 15.5679 18.3242C14.5448 18.3242 13.5637 17.9178 12.8403 17.1944C12.1168 16.471 11.7104 15.4898 11.7104 14.4668ZM23.4949 22.4721C22.4193 20.9136 20.907 19.7078 19.148 19.0065C20.0929 18.2623 20.7823 17.2422 21.1205 16.088C21.4587 14.9338 21.4288 13.7029 21.035 12.5665C20.6412 11.43 19.9031 10.4446 18.9233 9.7471C17.9434 9.04964 16.7706 8.67484 15.5679 8.67484C14.3651 8.67484 13.1923 9.04964 12.2125 9.7471C11.2326 10.4446 10.4945 11.43 10.1007 12.5665C9.70688 13.7029 9.677 14.9338 10.0152 16.088C10.3534 17.2422 11.0429 18.2623 11.9877 19.0065C10.2287 19.7078 8.7164 20.9136 7.64087 22.4721C6.28181 20.9438 5.39353 19.0552 5.08297 17.0338C4.77242 15.0123 5.05284 12.9442 5.89047 11.0784C6.72809 9.21262 8.08721 7.62876 9.80416 6.51753C11.5211 5.40631 13.5227 4.8151 15.5679 4.8151C17.613 4.8151 19.6146 5.40631 21.3316 6.51753C23.0485 7.62876 24.4076 9.21262 25.2453 11.0784C26.0829 12.9442 26.3633 15.0123 26.0527 17.0338C25.7422 19.0552 24.8539 20.9438 23.4949 22.4721Z" fill="black"/>
</svg>
